<?xml version="1.0" encoding="UTF-8"?><svg id="Layer_2" xmlns="http://www.w3.org/2000/svg" viewBox="0 0 792.94 176.16"><defs><style>.cls-1{fill:#2e3842;}</style></defs><g id="Layer_1-2"><g><path class="cls-1" d="M313.99,149.24c-2.56,2.89-4.5,5.96-6.92,8.66-6.64,7.39-14.69,10.36-24.51,7.76-4.31-1.14-7.42-3.76-9.5-7.61-2.76-5.13-3.8-10.74-4.36-16.48-1.4-14.44,.91-28.61,3.01-42.8,1.03-6.99,2.32-13.93,3.54-21.15-1.22,.38-1.43,1.33-1.86,2.02-8.17,13.16-17.37,25.52-28.05,36.76-1.27,1.34-1.51,2.65-1.35,4.42,1.07,11.3,1.08,22.51-3.59,33.19-4.56,10.44-15.54,16.29-25.75,14.66-11.1-1.77-16.75-14.74-11.16-24.53,2.23-3.91,5.14-7.26,8.22-10.47,4.15-4.32,8.43-8.53,12.72-12.72,1.14-1.12,1.55-2.22,1.34-3.85-1.16-8.77-3.36-17.29-5.95-25.72-.15-.49-.19-1.12-1.19-1.35-1.58,4.26-3.12,8.59-4.79,12.86-6.32,16.16-12.66,32.32-21.38,47.39-4.42,7.65-11.22,10.38-19.42,8.35-3.56-.88-5.95-2.9-7.2-6.36-1.21-3.36-1.87-6.83-2.34-10.34-.12-.88-.02-1.81-.54-2.61-1.09,.07-.99,1-1.24,1.58-1.71,3.91-3.17,7.95-5.1,11.74-3.9,7.66-12.77,10.45-20.5,6.69-2.16-1.05-3.52-2.8-4.34-5.02-.84-2.27-1.51-4.59-2.46-7.06-1.55,3.02-3.04,6.08-4.66,9.06-3.32,6.1-7,11.95-12.74,16.1-5.74,4.15-12,4.79-18.64,2.4-3.08-1.11-5.15-3.31-6.73-6.06-1.59-2.77-2.74-5.73-3.76-8.75-1.02-3.01-1.03-3.02-3.36-1.01-6.64,5.75-14.15,8.98-23.14,8.56-9.85-.46-16.67-5.44-19.5-14.9-2.5-8.37-2.85-16.99-2.31-25.64,.25-3.98,.7-7.95,1.18-11.92,.19-1.56-.31-2.23-1.86-2.2-1.47,.03-2.89-.25-4.24-.85-.85-.37-1.7-.8-1.76-1.87-.05-1.04,.71-1.62,1.47-2.13,.99-.66,2.09-1.07,3.28-1.27,4.08-.69,4.27-.97,5.04-5.11,3.52-18.95,7.78-37.72,14.07-55.97,1.9-5.51,4.03-10.91,7.04-15.92,3.26-5.44,7.6-9.8,14.2-10.36,9.56-.8,15.6,3.89,16.57,12.54,.52,4.57,.11,9.08-1.03,13.51-3.97,15.44-9.82,30.04-19.43,42.91-3.48,4.66-7.44,8.95-12.03,12.57-2.12,1.68-3.2,3.69-3.57,6.41-1.47,10.63-2.55,21.28-2.05,32.03,.23,5.1,.97,10.12,3.03,14.87,.14,.33,.27,.68,.43,1,2.53,5.18,4.49,5.71,8.88,2.13,6.17-5.04,10.54-11.52,13.95-18.6,1.28-2.66,.33-5.76,.07-8.6-.82-9-.41-17.98,.32-26.93,1.44-17.6,4.55-34.93,9.64-51.86,3.41-11.34,7.45-22.44,14.61-32.07,2.62-3.52,5.67-6.65,9.69-8.61,3.15-1.54,6.36-2.44,9.99-1.69,7.18,1.49,9.7,4.32,10.03,11.69,.38,8.56-1.38,16.84-3.67,24.97-7.55,26.86-16.27,53.34-27.05,79.1-1.33,3.18-2.71,6.37-4.38,9.38-1.49,2.68-1.92,5.3-1.45,8.32,1.05,6.84,2.33,13.61,4.84,20.08,.38,.97,.45,2.47,1.66,2.57,1.19,.1,1.55-1.36,2.14-2.22,7.74-11.22,12.19-23.91,16.22-36.75,3.72-11.87,7.32-23.79,10.69-35.77,1.14-4.05,3.59-6.09,7.38-7.07,3.39-.87,6.49,.1,9.45,1.57,1.76,.87,1.7,2.68,1.55,4.33-.59,6.33-1.3,12.64-1.83,18.97-.73,8.68-1.53,17.36-1.5,26.09,0,.34,.1,.67,.3,1.87,1.18-3.16,2.08-5.57,2.98-7.97,4.59-12.25,9.38-24.42,13.71-36.77,2.64-7.53,11.76-8.78,17.78-5.29,1.3,.75,1.46,2.04,1.34,3.34-.43,4.79-.96,9.57-1.36,14.36-.95,11.31-1.38,22.64-.76,33.99,.03,.51,.23,1.01,.53,2.24,1.02-2.02,1.8-3.4,2.44-4.84,7.39-16.7,14.28-33.61,20.09-50.93,.9-2.67,1.98-5.28,2.8-7.97,1.74-5.72,5.99-8.59,11.49-8.91,5.57-.33,10.55,1.66,13.58,6.92,4.3,7.49,6.51,15.75,8.93,23.94,.15,.52,.24,1.07,.43,1.58,.2,.56,.07,1.41,.92,1.47,.61,.04,.85-.61,1.18-1.03,4.03-5.16,7.78-10.52,11.31-16.02,8.06-12.56,14.99-25.74,21.08-39.36,.32-.72,1.06-1.49,.53-2.26-.64-.92-1.67-.41-2.52-.23-8.44,1.82-16.87,3.67-25.3,5.49-3.03,.66-6.1,1.12-9.19,.51-1.3-.26-3.03-.45-3.17-2.08-.14-1.59,1.49-2.25,2.73-2.63,4.78-1.44,9.62-2.7,14.43-4.05,8.14-2.28,16.37-4.18,24.68-5.71,2.06-.38,3.14-1.34,3.85-3.24,2.8-7.49,5.93-14.89,7.93-22.62,2.31-8.96,11.4-9.29,17.04-6.43,1.56,.79,1.8,2.15,1.73,3.68-.17,3.93-1.21,7.71-2.01,11.52-.71,3.38-1.5,6.74-2.37,10.08-.44,1.71-.18,2.27,1.76,1.96,9.95-1.6,19.97-2.72,30-3.66,4.69-.44,9.44-.94,14.02,.82,1.09,.42,2.42,.71,2.5,2.16,.08,1.45-1.2,1.91-2.22,2.46-3.41,1.85-7.22,1.71-10.9,2.06-11.75,1.12-23.45,2.63-35.13,4.36-1.84,.27-2.63,1.06-3.03,2.83-5.13,23.06-9.25,46.3-12.3,69.73-1.16,8.91-2.28,17.85-2.06,26.85,.14,5.63,.64,11.26,2.66,16.6,.46,1.22,.62,3.08,2.06,3.24,1.22,.13,1.89-1.52,2.6-2.53,5.82-8.3,10.2-17.38,14.26-26.61,7.06-16.03,12.01-32.72,15.32-49.91,.72-3.72,5.32-6.67,9.62-6.26,.27,.03,.54,.1,.81,.14,6.87,1.12,7.23,1.61,6.15,8.37-.57,3.59-1.12,7.17-1.66,10.76-.02,.16,.1,.33,.18,.55,1.11-.03,1.37-1.05,1.93-1.69,4.59-5.23,9.61-9.9,16.16-12.64,5.49-2.3,10.86-1.59,16.14,.63,2.07,.87,3.53,2.49,4.62,4.47,2.23,4.06,2.96,8.56,3.85,13.01,.35,1.74-.49,3.06-1.98,3.84-4.41,2.32-8.89,2.25-13.36,.16-1.46-.68-1.91-2.12-2.34-3.52-.53-1.74-1.08-3.47-1.57-5.22-.56-2.03-1.44-2.02-2.73-.55-4.24,4.81-7.63,10.2-10.4,15.93-6.65,13.74-10.95,28.26-13.82,43.22-.39,2.05-.89,4.09-1.17,6.16-.44,3.2-2.38,4.98-5.26,5.96-3.88,1.32-7.69,.94-11.47-.47-1.64-.62-2.47-1.75-2.45-3.52,.02-2.44,0-4.88,0-7.32ZM57.78,83.64c3.21-4.18,5.61-8.82,7.73-13.61,4.17-9.4,7.9-18.95,9.37-29.22,.49-3.4,.53-6.8-1.09-10.78-8.73,17.29-12.26,35.45-16,53.61ZM114.62,25.52c-11.44,20.13-15.46,42.35-18.42,64.88,7.16-21.33,15.88-42.22,18.42-64.88Zm112.27,109.87c-3.85,3.21-7.16,6.8-9.05,11.39-1.45,3.51-1.16,7.13,.48,10.58,1.12,2.35,1.81,2.41,3.27,.23,4.47-6.7,5.3-14.31,5.3-22.2Z"/><path class="cls-1" d="M732.01,90.52c-2.81,5.35-5.27,10.08-7.77,14.8-6.25,11.8-12.32,23.69-19.44,35-3.24,5.15-6.63,10.21-11.05,14.47-5.47,5.26-11.88,6.67-19.13,4.72-3.58-.96-5.68-3.23-6.59-6.87-1.32-5.27-.54-10.49,.07-15.7,1.48-12.58,4.97-24.74,8.08-36.97,1.23-4.85,2.13-9.76,2.45-14.76,.05-.77,.33-1.86-.6-2.19-.91-.33-1.34,.73-1.86,1.31-14.69,16.52-25.6,35.42-34.98,55.31-2.32,4.93-4.69,9.84-7.21,14.68-2.17,4.17-6.41,4.66-10.45,5.32-.7,.11-1.45,.03-2.17-.05-7.92-.9-9.07-2.18-7.48-9.84,3.54-17.07,7.38-34.09,10.97-51.15,1.25-5.95,2.22-11.96,2.09-18.09-.05-2.55-.79-3.36-3.55-3.22-7.45,.35-14.87,.64-22.19,2.26-2.13,.47-2.34,.86-.84,2.62,5.15,6.07,7.1,13.4,7.57,21.16,.48,8.02-1.61,15.68-3.76,23.29-2.38,8.42-5.31,16.64-10.13,24.02-3.9,5.98-9,10.44-16.3,11.79-12.58,2.34-23.09-4.4-26.69-17.11-.47-1.65-.83-3.32-1.4-5.58-1.18,1.79-2.13,3.16-3.01,4.57-4.09,6.55-7.98,13.23-13.61,18.66-5.49,5.28-11.9,6.67-19.12,4.62-4.43-1.26-6.09-3.41-6.44-8.02-.44-5.74,.18-11.42,.82-17.11,.13-1.16,.22-2.32,.36-3.76-1.24,.45-1.46,1.4-1.89,2.08-3.68,5.78-7.73,11.24-13.29,15.37-5.65,4.2-11.92,5.42-18.83,3.95-6.27-1.33-9.58-5.48-11.31-11.28-1.5-5.02-1.81-10.17-1.66-15.37,.04-1.26,0-2.52,0-4.06-1.25,.55-1.53,1.54-1.95,2.36-3.59,6.98-7.87,13.49-13.16,19.31-5.71,6.29-12.53,9.88-21.29,8.42-7.58-1.27-10.9-4.51-12.55-12.03-.28-1.29-.52-2.59-.9-4.48-3.31,4.97-6.18,9.47-9.56,13.59-4.02,4.89-8.63,8.84-15.21,9.75-11.86,1.65-19.07-4.38-20.25-16.7-1.15-11.99,2.21-23.03,6.82-33.79,4.69-10.95,10.86-21,19.71-29.13,5.77-5.3,12.23-9.36,20.35-10.15,10.23-.99,17.93,4.38,22.42,13.57,2.09,4.28,1.14,7.34,.1,10.97-3.37,11.72-6.15,23.54-6.91,35.76-.19,3.12,.28,6.15,.84,9.19,.11,.59,.11,1.4,.89,1.52,.73,.11,1.06-.62,1.44-1.09,3.85-4.74,7.05-9.91,9.94-15.28,9.03-16.85,16.06-34.59,23.24-52.26,4.1-10.1,8.11-20.23,12.1-30.38,1.15-2.93,1.05-2.98-2.15-2.73-12.16,.94-24.19,2.61-35.98,5.84-2.76,.76-5.53,1.12-8.28-.07-.83-.36-1.82-.62-1.93-1.7-.11-1.06,.71-1.66,1.53-2.05,1.55-.74,3.12-1.49,4.75-2.03,11.78-3.95,24-5.73,36.28-7.19,1.17-.14,2.34-.29,3.51-.44q6.08-.76,7.79-6.74c2.3-8.03,8.24-10.87,16.02-7.73,2.2,.89,3.18,2.29,2.65,4.65-.14,.62-.24,1.25-.37,1.87-1.05,5.2-1.06,5.14,4.31,4.38,26.08-3.68,52.04-8.12,77.9-13.11,3.29-.63,6.33,.23,9.21,1.64,1.9,.93,1.95,2.21,.32,3.6-1.93,1.64-4.32,2.26-6.7,2.87-15.42,4-31.16,6.27-46.87,8.66-12.75,1.94-25.51,3.73-38.35,4.97-1.74,.17-3.08,.61-3.57,2.65-5.34,22.16-11.95,44.01-16.12,66.45-1.83,9.83-3.34,19.71-1.89,29.77,.27,1.9,.74,3.74,1.27,5.57,.51,1.76,1.1,2.03,2.44,.49,3.72-4.28,6.76-9,9.48-13.94,7.55-13.7,13.58-28.13,20.41-42.18,1.59-3.27,3.19-6.53,4.71-9.83,2.82-6.12,11.17-8.58,18.4-4.46,1.8,1.03,1.69,2.86,1.38,4.62-1.03,6.01-2.93,11.81-4.38,17.72-3.91,15.9-6.68,31.99-8.13,48.3-.02,.24,.06,.49,.14,1.05,2.21-2.52,3.62-5.25,5.2-7.84,9.33-15.38,17.79-31.26,26.72-46.86,2.08-3.63,4.37-7.12,6.9-10.46,1.57-2.07,3.47-3.8,5.91-4.69,15.96-5.82,32.19-10.38,49.39-10.53,5.43-.05,10.86-1.04,16.29,.01,7.36,1.42,9.48,4.01,9.72,11.42,.22,6.76-.77,13.38-1.57,20.28,.72-.94,1.45-1.88,2.15-2.83,5.26-7.09,10.86-13.88,17.34-19.89,2.68-2.49,5.62-4.6,8.88-6.26,5.86-2.98,11.76-2.62,17.63-.09,2.78,1.2,4.24,3.56,5.19,6.34,1.52,4.48,.93,8.98,.13,13.47-1.85,10.39-5.24,20.4-7.55,30.68-1.45,6.46-2.58,12.97-2.56,19.84,.81-1.22,1.68-2.42,2.43-3.68,9.28-15.53,17.5-31.63,25.57-47.8,1.87-3.74,3.86-7.4,6.95-10.35,6.25-5.98,15.08-7.24,22.66-3.17,1.74,.94,2.98,2.35,4.05,3.95,3.24,4.81,5.26,10.16,6.66,15.73,.62,2.48,1.53,2.97,3.96,1.92,6.72-2.92,13.72-4.66,21.15-4.52,3.03,.06,5.95-1.59,9.12-.54,2.29,.75,5.05,1.25,5.07,4.1,.02,2.78-2.82,3.31-4.94,3.85-2.27,.58-4.66,.92-7,.95-8.47,.12-15.63,3.63-22.4,8.27-1.35,.93-1.73,2.01-1.53,3.7,1.64,13.58,.51,26.82-5.29,39.42-5.54,12.03-17.27,14.44-27.18,11.11-6.83-2.3-10.74-9.22-9.68-16.95,1.49-10.84,6.78-19.82,13.62-28.05,2.2-2.65,4.45-5.29,7.18-7.44,.74-.58,1.36-1.28,1.21-2.29-.95-6.46-2.15-12.86-4.92-19.69Zm-348.65,53.69c.32,2.08,.75,5.13,1.28,8.17,.11,.66,.16,1.61,1.03,1.74,.71,.1,.99-.71,1.36-1.19,3.41-4.37,6.37-9.05,9.16-13.84,6.98-12.01,12.95-24.56,19.59-36.76,1.93-3.55,3.24-7.53,6.6-10.19,.91-.72,.32-1.66-.11-2.47-3.5-6.6-7.2-7.37-12.9-2.67-.14,.12-.27,.24-.41,.36-7.97,6.95-13.34,15.73-17.67,25.22-4.45,9.74-7.36,19.9-7.93,31.65Zm184.69-11.88c-.08,5.38,.8,10.54,3.16,15.36,.72,1.48,1.17,3.79,2.99,3.86,1.65,.06,2.31-2.1,3.12-3.47,7.28-12.32,11.33-25.76,12.83-39.87,.79-7.42-1.08-14.61-4.92-21.15-.91-1.55-1.74-2.27-3.07-.21-8.97,13.86-13.07,29.2-14.1,45.49Z"/><path class="cls-1" d="M18.58,28.7c-2.28,43.46-1.45,86.95-1.71,130.43-.01,1.99-.36,3.98-.34,5.97,.04,2.66-1.45,3.96-3.72,4.71-.6,.2-1.22,.43-1.84,.48C2.25,170.99-.05,169.93,0,161.86c.09-15.25-.09-30.5,.32-45.75,.37-13.88,.75-27.76,1.37-41.63,.75-16.67,1.99-33.31,4-49.9,.65-5.34,6.59-7.33,11.35-4.86,1.19,.62,1.52,1.74,1.53,2.98,0,2,0,3.99,0,5.99Z"/><path class="cls-1" d="M534.8,63.73c-.49-.1-1.46-.29-2.43-.49-2.33-.49-3.49-1.68-2.74-4.24,.51-1.73,.87-3.51,1.13-5.3,.82-5.66,7.74-6.89,12.2-4.52,1.15,.61,1.3,1.68,1.12,2.81-.27,1.7-.64,3.38-.92,5.07-.8,4.89-2.96,6.73-8.36,6.67Z"/></g></g></svg>