<?xml version="1.0" encoding="UTF-8"?><svg id="Layer_2" xmlns="http://www.w3.org/2000/svg" viewBox="0 0 326.77 173.38"><defs><style>.cls-1{fill:#2e3842;}</style></defs><g id="Layer_1-2"><g><path class="cls-1" d="M198.79,97.42c2.69-4.46,5.04-8.34,8-11.77,4.86-5.64,10.53-10.09,18.17-11.11,5.51-.74,10.8,.49,15.23,3.79,5.17,3.85,5.49,9.58,4.5,15.35-1.29,7.56-5.93,13.17-11.44,18.07-5.39,4.79-11.55,8.22-18.9,8.93-1.76,.17-1.67,.88-1.06,2.11,3.55,7.2,7.5,14.13,13.44,19.7,6.67,6.26,12.06,5.89,18.06-1.01,8.35-9.6,12.52-21.2,15.79-33.17,1.94-7.09,3.42-14.31,4.86-21.52,.98-4.91,3.66-8.1,8.42-9.29,4.75-1.19,9.12,.07,12.49,3.57,5.69,5.91,10.53,12.5,14.41,19.75,1.97,3.68,1.9,3.7,6,2.34,5.14-1.71,10.33-3,15.72-1.12,1.86,.65,4.33,1.06,4.27,3.52-.06,2.3-2.52,2.56-4.28,3.14-1.02,.33-2.21,.65-3.2,.42-4.07-.92-7.18,1.16-10.47,2.91-1.93,1.03-2.43,2.25-1.84,4.41,1.95,7.12,3.07,14.39,2.88,21.8-.31,12.05-9.21,22.82-20.73,25.19-4.1,.85-8.16,.5-12.08-.9-6.56-2.35-10.19-9.74-9.08-17.97,1.13-8.35,5.36-15.13,10.63-21.41,2.58-3.07,5.55-5.74,8.54-8.39,.98-.87,1.51-1.73,1.03-3.07-2.02-5.67-4.63-11.05-8.01-16.04-.18-.26-.51-.42-1.09-.87-.48,2.3-.9,4.31-1.33,6.32-2.92,13.79-7.03,27.12-15.79,38.48-6.35,8.23-14.32,13.96-25.15,14.41-12.52,.52-21.71-5.39-28.72-15.28-1.88-2.65-3.59-5.42-5.4-8.15-1.04,.6-.94,1.62-1.14,2.44-1.87,7.89-2.94,15.88-2.85,24.01,.05,4.52-1.16,5.87-5.63,6.82-1.82,.39-3.58,.36-5.39-.03-3.95-.85-4.56-1.58-5-5.53-2.09-19.11-1.08-38.27-.88-57.41,.04-3.7,.36-7.43,.46-11.15,.06-2.04-.32-2.93-2.6-1.85-5.78,2.74-11.89,4.48-18.2,5.49-1.38,.22-2.08,.49-1.01,2,6.6,9.37,7.29,20.15,6.97,31.05-.16,5.72-1.12,11.39-3.11,16.81-4.07,11.06-14.07,16.21-25.02,12.89-7.07-2.15-11.93-8.51-12.73-16.4-.9-8.91,.92-17.53,2.55-26.17,.94-5,2.23-9.93,3.83-14.76,.73-2.21,.1-2.54-1.92-1.95-4.1,1.19-8.23,2.27-12.34,3.41-1.78,.49-2.14,1.2-.79,2.79,3.12,3.68,4.22,8.21,4.7,12.86,1.06,10.25,.42,20.34-3.53,29.99-3.92,9.6-13.28,13.99-23.17,11.21-5.27-1.48-8.16-5.22-9.22-10.15-3.46-16.25-1.01-31.61,7.93-45.72,2.41-3.8,5.99-5.71,10.72-4.8,.76,.15,1.67,.06,2.4-.23,7.9-3.09,16.18-4.85,24.3-7.16,2.28-.65,4.52-1.35,6.61-2.49,2.23-1.21,4.59-1.65,7.11-.99,13.83,3.63,25.24-1.88,36.05-9.59,1.79-1.27,1.85-3.18,2.04-5.1,1.49-14.76,3.69-29.4,9.19-43.29,3.26-8.25,7.52-15.97,14.39-21.86,5.81-4.98,12.4-7.02,20-4.78,4.51,1.32,7.31,4.14,8.39,8.75,1.9,8.13,.01,15.68-3.5,22.95-7.27,15.05-16.73,28.49-29.51,39.39-2.52,2.15-3.56,4.64-3.52,7.83,.07,5.62-.97,11.21-.47,17.6Zm3.1-40.85c7.65-9.72,14.61-19.82,18.55-31.69,1.52-4.56,1.97-9.21,.8-13.93-.19-.77-.24-1.77-1.1-2.08-.99-.35-1.38,.66-1.88,1.24-1.05,1.24-2.13,2.49-3.02,3.84-8.51,12.91-11.53,27.56-13.35,42.61Zm-60.43,75.51c-.08,5.91,.55,10.08,2.77,13.9,.44,.75,.71,1.89,1.78,1.82,.9-.06,1.09-1.13,1.46-1.83,3.16-5.91,4.12-12.38,4.51-18.92,.48-8.12-.25-16.14-3.31-23.8-.25-.64-.42-1.58-1.26-1.6-.79-.03-.81,.88-.96,1.45-2.66,10.02-4.51,20.18-4.99,28.98Zm88.15-41.43c.11-1.37-.23-3.06-.79-4.7-1.26-3.65-2.28-3.89-4.96-1.26-7.11,6.97-11.12,15.81-14.9,24.78-1.52,3.62-.67,4.7,3.31,4.42,.62-.04,1.26-.21,1.84-.43,7.72-2.95,15.5-14.21,15.5-22.8Zm-130.26,42.03c-.08,4.07,.18,8.67,1.66,13.12,.3,.91,.39,2.32,1.45,2.38,1.06,.06,1.34-1.33,1.72-2.2,3.6-8.42,4.74-17.24,4.14-26.31-.24-3.62-.77-7.21-2.12-10.61-.29-.73-.49-1.79-1.38-1.86-1.06-.08-1.03,1.11-1.31,1.8-3.01,7.41-4.26,15.14-4.15,23.68Zm193.53,3.93c-.16-1.8-.38-4.51-.64-7.21-.06-.6-.04-1.38-.84-1.52-.63-.11-.91,.51-1.2,.95-1.15,1.74-2.44,3.41-3.38,5.26-2.94,5.79-4.79,11.79-2.44,18.29,.99,2.74,1.75,2.9,3.59,.64,3.66-4.51,4.85-9.83,4.9-16.41Z"/><path class="cls-1" d="M46.42,85.32c7.02-.55,13.6,.51,20,2.74,10.38,3.62,16.05,10.92,16.05,21.87-.01,21.28-8.82,37.82-27.43,48.73-5.83,3.42-12.04,5.96-18.52,7.84-.94,.27-2.11,.34-2.39,1.52-1.16,4.91-5.29,5.14-9.01,5.34-5.71,.29-8.05-1.54-9.71-7.01-6.08-20.02-10.72-40.34-12.69-61.23C1.32,90.11-.25,75.13,.03,60.03c.11-5.64,.65-11.22,1.58-16.79,.56-3.37,3.1-4.31,5.73-5.02,2.66-.71,5.32-.15,7.42,1.64,1.29,1.1,.74,2.87,.55,4.4-.67,5.31-.53,10.64-.02,16.11,.94-1.78,1.83-3.6,2.84-5.34,5.06-8.72,11.99-15.44,21.16-19.76,4.52-2.13,9.15-2.55,14.07-1.49,8.51,1.84,11.47,7.66,10.92,15.95-.8,12.02-7.42,21.41-14.33,30.62-1.03,1.38-2.15,2.7-3.21,4.06-.11,.13-.13,.33-.33,.9Zm18.02,28.08c-.45-4.88-.69-9.14-2.78-13.03-2.86-5.35-8.37-8.12-14.33-7.08-5.82,1.01-11.19,3-15.57,7.18-1.31,1.24-2.71,2.5-4.3,3.29-1.77,.88-2.2,2.08-2.22,3.89-.17,16.65,2.83,32.84,6.76,48.92,.38,1.56,1.03,1.87,2.48,1.21,3.64-1.64,7.31-3.25,10.55-5.62,13.33-9.74,18.08-23.71,19.4-38.77Zm-38.33-23.29c4.14-4.42,7.54-8.62,10.72-12.99,4.18-5.75,8.15-11.62,10.19-18.53,1.37-4.65,2.31-9.35,.81-14.2-.64-2.09-1.65-2.46-3.28-.99-2.44,2.19-4.83,4.41-6.83,7.02-6.05,7.89-8.53,17.16-10.16,26.73-.69,4.06-1.36,8.14-1.45,12.98Z"/></g></g></svg>