<?xml version="1.0" encoding="UTF-8"?><svg id="Layer_2" xmlns="http://www.w3.org/2000/svg" viewBox="0 0 516.59 180.18"><defs><style>.cls-1{fill:#2e3842;}</style></defs><g id="Layer_1-2"><g><path class="cls-1" d="M473.19,97.14c-.99,3.32-1.81,6.08-2.63,8.83-5.59,18.7-14.42,35.64-27.22,50.46-8.39,9.72-21.38,12.41-32.84,6.58-1.81-.92-3.08-.71-4.72,.32-6.6,4.15-13.66,6.67-21.65,5.81-7.92-.86-13.63-4.53-16.52-12.2-2.46-6.53-3.45-13.34-4.1-20.23-.09-.97,.15-2.01-.63-2.9-1.17,.32-1.24,1.47-1.64,2.28-3.39,6.84-6.87,13.62-11.68,19.63-6.1,7.63-15.02,9.82-23.93,5.9-3.27-1.44-5.42-3.88-6.92-7.01-2.15-4.51-2.94-9.33-3.21-14.26-.58-10.75,.7-21.4,1.88-32.05,.05-.43,.27-.87-.49-1.62-1.07,1.16-2.1,2.39-3.25,3.5-3.28,3.14-6.51,6.34-9.96,9.29-1.9,1.62-2.41,3.25-1.99,5.69,1.69,9.73,1.35,19.37-2.23,28.7-2.08,5.41-4.95,10.28-9.63,13.94-6.96,5.45-17.81,5.69-24.38,.45-5.77-4.6-7.34-13.02-3.92-20.93,3.27-7.56,8.91-13.18,14.98-18.46,2.19-1.91,4.39-3.82,6.72-5.55,1.42-1.05,1.58-2.17,1.19-3.76-1.62-6.58-4.43-12.67-7.53-18.65-.9-1.73-1.59-1.33-2.41,.02-5.57,9.28-13.83,15.49-23.26,20.37q-7.75,4.01-8.02,12.92c-.23,7.27-1.73,14.25-5.11,20.72-4.51,8.63-11.4,14.01-21.3,14.99-5.03,.5-9.76-.62-14.11-3.19-2.25-1.34-3.7-3.4-4.76-5.86-.18,1.78-.5,3.56-.49,5.35,.01,2.35-1.09,3.71-3.17,4.55-4.19,1.69-8.19,1.08-12.07-.95-1.35-.71-1.83-1.94-1.99-3.36-.86-8.03-1.75-16.06-2.59-24.09-.29-2.77-.5-5.56-.81-8.95-2.05,3.8-3.81,7.12-5.63,10.4-3.95,7.13-8.74,13.61-14.91,18.98-5.66,4.94-12.21,7.55-19.81,6.59-9.8-1.23-15.32-7.27-17.65-16.51-3.41-13.54-1.76-26.7,3.47-39.48,2.87-7.02,6.42-13.67,12.84-18.25,5.89-4.2,12.19-4.89,18.84-2.07,5.06,2.15,7.15,6.03,6.66,11.53-.71,7.95-5.05,13.67-11.06,18.34-4.33,3.36-9.06,6.08-14.5,7.3-1.32,.3-2.23,.9-2.33,2.26-.62,8.98-.24,17.83,4.08,26.01,1.62,3.07,2.26,3.12,4.82,.78,7.52-6.88,12.57-15.49,16.71-24.64,8.36-18.51,13.41-37.99,16.27-58.05,.28-1.97,.26-3.99,.28-5.98,.09-9.9,.22-19.79,.38-29.69,.11-6.84,4.95-8.36,9.65-8.22,1.33,.04,2.65,.58,3.95,.97,2.79,.84,4.06,2.7,4.08,5.66,.06,9.63,.16,19.24-.29,28.87-.39,8.25-.45,16.52,.1,24.78,.37,5.53,.01,11.08,.68,16.6,.07,.61,.15,1.21,.32,2.59,2.88-4.62,5.47-8.61,8.65-12.17,3.01-3.37,6.55-6,10.66-7.86,9.95-4.49,23.3-.25,27.27,12.25,.94,2.95,1.69,5.95,2.12,9.01,.28,1.98,1.11,1.98,2.53,1.12,11.33-6.92,19.13-16.32,20.98-29.89,.42-3.11,4.44-5.56,8.47-4.97,4.01,.59,7.37,2.21,9.62,5.9,4.49,7.37,9,14.73,12.45,22.67,.97,2.23,1.72,2.01,3.16,.49,5.24-5.54,10.04-11.5,15.62-16.72,3.49-3.26,7.47-4.66,12.25-3.37,4.84,1.31,6.4,3.24,5.97,8.19-.48,5.61-1.2,11.19-1.75,16.79-1.1,11.12-2.35,22.24-.28,33.37,.28,1.51,.78,2.98,1.26,4.45,.21,.65,.27,1.58,1.16,1.67,.83,.08,1.19-.74,1.61-1.31,3.68-5.13,6.37-10.8,8.83-16.56,9.64-22.62,17.05-45.97,22.57-69.93,.53-2.3,.79-4.66,1.29-6.96,.47-2.17-.37-2.8-2.44-2.56-7.31,.83-14.62,1.66-21.94,2.37-3.78,.37-7.62,.87-11.34-.39-1.21-.41-3.06-.63-2.86-2.39,.19-1.66,1.9-2.14,3.32-2.36,4.3-.68,8.63-1.24,12.94-1.81,7.29-.96,14.58-1.96,21.89-2.81,1.91-.22,2.6-1.14,2.95-2.89,1.63-8.19,3.16-16.42,5.35-24.49,1.45-5.37,5.59-7.82,11.11-6.78,1.15,.22,2.24,.72,3.36,1.08,2.84,.91,3.91,2.79,3.71,5.79-.49,7.37-2.33,14.51-3.53,21.76-.53,3.21-.41,3.45,2.95,3.31,10.34-.45,20.68-1.06,31.04-1.06,3,0,5.73,.83,8.38,2.09,.83,.39,1.68,.88,1.72,1.93,.05,1.2-.88,1.74-1.78,2.18-2.24,1.09-4.64,1.51-7.13,1.59-11.44,.35-22.87,.76-34.31,1.03-2.23,.05-3.15,.84-3.61,3.03-1.68,7.9-3.53,15.77-5.43,23.63-1.22,5.07-1.54,10.25-1.72,15.4-.29,8.34-1,16.66-.56,25.04,.49,9.34,.47,18.7,1.92,27.97,.55,3.51,1.26,6.96,2.92,10.16,1.03,2,2.41,2.5,4.46,1.58,3.88-1.75,7.09-4.38,9.96-7.46,.84-.9,.96-1.81,.59-2.98-6.05-19.2-1.92-37.35,6.01-54.99,2.52-5.62,7.14-9.32,13.41-9.94,8.1-.8,14.77,2.92,15.05,11.91,.43,14.06-3.49,27.1-8.75,39.86-1.94,4.71-4.25,9.24-7.12,13.47-1.37,2.01-.69,3.87,1.79,6.31,1.82,1.8,2.94,.35,4.12-.7,5.82-5.14,9.66-11.75,13.57-18.31,8.22-13.79,13.23-28.85,17.36-44.25,.61-2.28,1.19-4.57,1.84-6.84,1.94-6.79,8.33-10.32,15.26-8.59,7.03,1.75,11.6,6.45,15.27,12.33,4.59,7.36,7.09,15.51,8.75,23.93,.54,2.76,1.53,3.33,4.19,2.6,4.71-1.28,9.37-.83,13.77,1.46,.89,.47,1.88,.95,1.94,2.09,.06,1.28-.96,1.9-1.92,2.42-1.45,.8-3.07,1.1-4.7,1.27-.81,.09-1.64,.08-2.44,.25-7.71,1.64-8.67,2.76-8.58,10.54,.08,6.84-.38,13.59-2.36,20.21-3.25,10.86-11.67,13.65-20.59,13.03-2.99-.21-5.88-1.12-8.62-2.43-6.54-3.13-9.13-8.26-7.6-15.38,1.8-8.37,7.16-14.32,13.54-19.53,1.62-1.32,3.3-2.57,5.05-3.71,1.38-.9,2.01-2,1.81-3.63-1.09-8.59-2.69-17.05-6.04-25.09-.13-.32-.38-.59-.96-1.46Zm-274.46,56.07c1.64-3.18,3.46-6.17,5.55-9.03,5.27-7.23,12.04-12.76,19.55-17.48,1.37-.86,2.47-1.74,2.35-3.61-.43-6.62-1.04-13.2-3.5-19.45-1.43-3.62-1.57-3.65-4.33-.73-6.03,6.37-9.86,14.08-13.17,22.06-3.75,9.02-5.6,18.51-6.44,28.24Zm87.54-18.36c-5.72,4.63-10.37,9.93-12.18,17.19-.79,3.15-.6,6.3,.69,9.31,1.28,2.97,2.38,3.21,4.32,.67,6.11-8.02,7.72-17.28,7.17-27.17Zm-74.18,23.63c0-.06,0,.4,.05,.85,.44,3.34,1.72,3.87,4.42,1.84,1.1-.83,1.97-1.86,2.78-2.97,4.03-5.51,5.74-11.87,6.66-18.5,.08-.58,.39-1.39-.44-1.65-.68-.21-1.15,.43-1.58,.87-4.21,4.4-8.27,8.92-10.77,14.59-.62,1.42-1.14,2.87-1.13,4.96Zm-76.98-37.07c4.96-3.04,8.98-6.79,10.94-12.33,.82-2.33,1.19-4.73,.92-7.2-.07-.63-.13-1.34-.81-1.6-.73-.29-1.18,.32-1.58,.79-5.04,5.88-7.85,12.82-9.47,20.34Z"/><path class="cls-1" d="M56.52,95.34c-3.29,10.21-5.33,20.53-6.86,30.95-1.99,13.58-2.58,27.28-3.38,40.96-.16,2.71-.62,5.41-1.05,8.09-.35,2.2-1.77,3.46-3.86,4.13-6.26,2.02-12.05-.42-14.55-6.47-10.61-25.64-17.72-52.25-22.07-79.63C2.23,77.5,.49,61.53,.04,45.44c-.18-6.35,.36-12.7,.99-19.03,.09-.93,.43-1.79,1.22-2.35,2.34-1.69,4.78-1.81,7.47-.75,2.52,1,2.94,2.86,2.9,5.23-.66,38.29,7.18,75.24,17.66,111.77,.76,2.66,1.57,5.31,2.56,7.92,.47-11.02,1.52-21.93,3.54-32.72,2.8-14.94,6.81-29.52,12.69-43.6,2.66-6.36,10.97-7.19,16.19-3.34,1.69,1.25,1.99,3.43,2.39,5.38,1.68,8.09,3.17,16.22,4.95,24.29,3.41,15.36,8.42,30.24,13.87,45.1,.2-4.26,.48-8.52,.58-12.78,.65-27.22,3.36-54.19,10.4-80.57,4.19-15.69,10.02-30.7,19.23-44.28,3.97-5.85,10.97-7.27,16.71-3.94,2.59,1.51,2.99,4.84,.48,6.38-1.76,1.07-2.73,2.55-3.6,4.27-6.69,13.17-10.11,27.4-13.47,41.64-5.18,21.95-8.61,44.19-10.86,66.62-1.42,14.18-2.54,28.39-2.42,42.66,.03,3.35-.31,6.71-.44,10.06-.1,2.46-1.35,3.99-3.57,4.97-4.78,2.12-13.15,.3-16.2-4.75-6.34-10.52-10.9-21.74-14.66-33.34-4.62-14.26-8.66-28.69-11.69-43.38-.11-.52-.29-1.03-.43-1.55Z"/><path class="cls-1" d="M339.08,71.9c-.2,5.14-2.83,7.72-7.78,7.61-3.81-.09-6.46-1.95-6.35-4.44,.26-5.6,3.21-8.75,7.97-8.5,3.86,.21,6.28,2.3,6.16,5.33Z"/></g></g></svg>