<?xml version="1.0" encoding="UTF-8"?><svg id="Layer_2" xmlns="http://www.w3.org/2000/svg" viewBox="0 0 375.61 148.89"><defs><style>.cls-1{fill:#2e3842;}</style></defs><g id="Layer_1-2"><g><path class="cls-1" d="M179.08,117.63c4.41-10.19,7.14-19.96,8.95-29.99,1.16-6.43,2.08-12.9,3.18-19.34,.76-4.43,4.6-7.4,9.1-7.04,1.8,.15,3.58,.58,5.29,1.23,1.7,.64,2.73,1.73,2.85,3.59,.34,5.34,.69,10.68,1.04,16.02,.03,.52,.09,1.03,.19,2.08,1.86-3.34,3.42-6.25,5.08-9.1,2.97-5.1,6.86-9.09,12.8-10.72,6.85-1.88,14.11,1.3,17.02,7.74,3.38,7.48,4.33,15.53,5.25,23.56,1.46,12.81,1.72,25.7,2.73,38.54,.06,.72,.12,1.46,.33,2.14,1.1,3.49,.44,4.92-3,6.18-3.5,1.29-6.94,.99-10.37-.36-1.9-.75-2.44-2.3-2.76-4.05-1.1-6-1.35-12.08-1.79-18.14-.92-12.57-1.27-25.2-3.86-37.6-.34-1.64-.84-3.26-1.43-5.55-2.97,4.56-4.73,8.89-6.36,13.26-3.52,9.48-5.78,19.3-7.82,29.18-.2,.98-.41,1.96-.64,2.93-1.66,7.01-10.63,10.23-16.63,5.98-1.33-.94-1.65-2.34-1.88-3.78-.3-1.86-.52-3.74-.84-6.19-1.3,2.23-2.29,4.02-3.36,5.75-4.62,7.44-13.02,10.13-21.11,6.83-2.67-1.09-4.53-2.99-5.66-5.59-.79-1.82-1.46-3.7-2.18-5.55-1.21,.02-1.24,1.04-1.57,1.68-1.46,2.93-2.97,5.81-5.01,8.41-4.96,6.34-13.07,8.86-20.74,6.36-4.88-1.59-7.45-5.09-7.8-10.66-.31-4.92,.1-9.8,1.11-14.62,2.44-11.66,4.75-23.37,11.83-33.38,4.11-5.81,9.51-9.79,16.7-10.71,6.88-.88,12.36,2.02,16.85,7.04,.72,.8,.57,1.88,.61,2.87,.34,9.61,.43,19.24,1.59,28.8,.47,3.86,1.08,7.69,2.3,12.21Zm-20.9-41.84c-7.41,4.61-17.09,37.89-14.1,47.88,7.7-15.15,9.3-31.78,14.1-47.88Z"/><path class="cls-1" d="M18.08,28.8c2.47-3.8,4.9-7.49,8.06-10.63,6.97-6.9,15-9.48,24.64-6.59,9.77,2.93,13.82,9.1,11.77,19.15-2.14,10.48-7.1,19.77-13,28.59-.62,.93-2.13,1.85-1.37,2.95,.66,.96,2.21,.28,3.35,.13,11.91-1.55,21.21,4.82,23.96,16.45,2.67,11.26,.62,21.97-3.75,32.43-7.44,17.81-21.19,27.07-39.94,29.59-1.9,.26-3.63,.47-3.38,3.15,.15,1.58-1.21,2.36-2.46,2.95-4.19,1.99-8.42,1.88-12.68,.17-1.72-.69-2.38-2.09-2.88-3.71-3.19-10.45-5.25-21.14-6.93-31.92C1.19,96.85-.41,82.14,.09,67.3,.66,50.7,1.75,34.13,4.34,17.69c.96-6.12,5.24-8.82,11.19-7.13,2.25,.64,3.42,1.83,3.2,4.28-.36,3.89-.62,7.78-.91,11.67-.05,.68-.44,1.38,.26,2.28Zm42.52,62.11c-.14-7-.65-12.4-3.39-17.33-1.87-3.35-3.14-4.17-6.8-3.58-7.03,1.13-13.51,3.51-18.63,8.8-2.39,2.47-4.7,5.13-7.87,6.65-1.76,.85-2.01,2.05-1.83,3.75,.72,6.77,1.31,13.55,2.07,20.31,.82,7.3,1.8,14.59,2.66,21.89,.16,1.41,.5,2.17,2.17,1.91,7.63-1.17,14.42-4.02,19.28-10.21,7.74-9.86,11.8-21.15,12.34-32.19Zm-38.54-18.42c.53-.18,.83-.2,1-.36,11.73-11.01,19.97-24.17,24.12-39.76,1.02-3.83,1.05-7.77-.87-11.43-1.66-3.18-3.38-3.43-5.87-.95-.84,.83-1.62,1.72-2.35,2.64-8.31,10.6-12.14,23.02-14.49,36.02-.82,4.52-1.35,9.07-1.53,13.84Z"/><path class="cls-1" d="M296.62,100.99c-2.51,7.94-4.5,15.95-7.42,23.68-1.32,3.49-2.67,6.94-5.38,9.68-6.17,6.23-17.25,5.52-22.24-1.66-4.89-7.03-6.86-15.02-6.44-23.5,.73-14.62,5.42-27.72,15.66-38.49,3.65-3.84,8.21-6.01,13.57-6.04,1.97-.01,1.97-1.28,2.13-2.48,.85-6.11,1.6-12.24,2.46-18.35,1.68-11.88,2.92-23.78,2.8-35.8-.05-5.3,2.43-7.34,8.6-8.01,1.4-.15,2.9,.21,4.29,.56,3.59,.89,4.01,1.58,4.13,5.26,.26,7.8-.71,15.58-.13,23.4,1.11,15.11,2.22,30.22,3.67,45.3,1.37,14.27,2.81,28.54,4.57,42.77,.95,7.66,1.98,15.3,3.06,22.94,.78,5.52-.35,7.19-5.89,8.28-1.44,.28-2.87,.45-4.33,.29-6.49-.72-7.39-1.66-8.29-8.15-1.73-12.41-3.36-24.82-4.42-37.31-.07-.8-.27-1.59-.42-2.39Zm-23.99,22.21c1.18-.65,1.17-1.74,1.45-2.64,4.38-14.44,7.74-29.13,10.28-44,.24-1.41,1.44-3.49-.17-4.25-1.76-.84-2.76,1.41-3.62,2.59-7.94,10.97-11.82,23.23-10.93,36.81,.26,3.93,1.04,7.86,2.99,11.48Z"/><path class="cls-1" d="M116.09,79.72c-3.62,5.88-5.64,11.66-6.89,17.73-2.31,11.17-3.3,22.42-2.37,33.83,.24,2.93,1.23,6.38-2.67,8.03-4.44,1.88-8.82,1.93-13.07-.56-1.05-.62-1.12-1.8-1.3-2.88-1.32-8.34-2.15-16.74-2.93-25.14-1-10.84-2.07-21.68-1.84-32.59,.14-6.64,4.7-9.94,11.11-8.09,2.58,.75,4.14,2.13,3.83,5.06-.09,.86,.06,1.75,.11,2.66,1.2-.08,1.39-1.03,1.89-1.6,4.32-4.99,12.16-9.21,20.85-6.34,6.31,2.08,9.73,6.27,11.14,12.53,.41,1.81-.14,3.01-1.68,3.86-4.15,2.29-8.34,2.12-12.54,.16-.97-.45-1.46-1.31-1.84-2.27-.5-1.25-1.02-2.49-1.8-4.38Z"/><path class="cls-1" d="M351.95,140.34c-10.84-.53-19.62-4.75-25.37-14.32-1.24-2.07-3.19-4.29-1.56-6.73,1.89-2.83,5.03-3.81,8.39-3.44,3.33,.37,5.99,1.32,7.5,5.12,1.76,4.43,5.54,7.55,9.56,10.18,1.6,1.05,2.78,.76,3.98-.71,4.59-5.64,5.64-16.93,2.17-23.31-2.02-3.72-5.31-5.93-9.02-7.54-4.83-2.1-9.74-3.99-14.61-5.99-1.94-.8-3.75-1.85-5.41-3.12-3.88-2.99-5.6-6.97-4.51-11.75,1.93-8.45,7.16-14.1,15.37-16.91,3.94-1.35,7.75-.52,11.33,1.3,3.05,1.55,4.79,5.35,3.59,7.39-1.36,2.32-6.94,2.96-9.49,1.08-.15-.11-.28-.23-.41-.35-2.59-2.4-2.57-2.39-4.68,.56-1.24,1.73-2.05,3.64-2.55,5.68-.91,3.76,.38,7.04,3.57,9.26,2.11,1.48,4.53,2.29,6.94,3.1,4.91,1.66,9.8,3.33,14.51,5.49,15.49,7.13,19.25,26.48,7.39,38.85-4.45,4.65-10.3,6.26-16.68,6.15Z"/></g></g></svg>