<svg xmlns="http://www.w3.org/2000/svg" viewBox="0 0 26 24.36"><defs><style>.cls-1{fill:#2c3843;}</style></defs><g id="Layer_2" data-name="Layer 2"><g id="Layer_1-2" data-name="Layer 1"><path class="cls-1" d="M1.54,0A2.93,2.93,0,0,1,2.77.3a.44.44,0,0,1,.15.12,5.29,5.29,0,0,0,1,1c.65.62,1.26,1.27,1.88,1.92,1,1.12,2.23,2.09,3.29,3.2.81.86,1.61,1.71,2.46,2.53l.8.79c.09.1.14.08.23,0,1.33-1.42,2.66-2.84,4-4.29a32,32,0,0,1,2.76-2.7c.68-.61,1.34-1.25,2-1.92A2.21,2.21,0,0,1,23.64.34a3.35,3.35,0,0,1,.53.19c.29.14.36.34.16.61a10.27,10.27,0,0,1-1.45,1.57C22,3.57,21,4.37,20.12,5.3c-1.46,1.59-2.92,3.18-4.4,4.75-.46.48-.92,1-1.37,1.46-.19.21-.19.21,0,.42,1.05,1.09,2.13,2.16,3.21,3.21.8.78,1.58,1.56,2.38,2.33q2.07,2,4.23,3.86c.43.38.87.76,1.26,1.18a2.11,2.11,0,0,0,.35.32.38.38,0,0,1,0,.66,1.87,1.87,0,0,1-1,.45,3.19,3.19,0,0,1-1.7-.19,1.64,1.64,0,0,1-.61-.41c-1-1.05-2.14-1.94-3.2-2.93-.89-.83-1.79-1.64-2.65-2.5s-2-2-3-2.94l-1.16-1.16c-.12-.11-.19-.11-.31,0-.76.81-1.5,1.64-2.24,2.46-1.3,1.44-2.6,2.88-3.85,4.36-.82,1-1.66,2-2.49,2.94a2.33,2.33,0,0,1-2.41.71,1.71,1.71,0,0,1-.65-.24.25.25,0,0,1-.05-.41c1-1.18,2-2.42,3-3.62,1.45-1.72,3-3.4,4.46-5.08.8-.9,1.63-1.78,2.46-2.66.36-.38.32-.29,0-.62C9.33,10.59,8.27,9.53,7.22,8.45c-.69-.71-1.34-1.45-2-2.14S3.58,4.8,2.83,4c-.51-.53-1-1.08-1.5-1.61-.32-.34-.66-.65-1-1a1.81,1.81,0,0,1-.28-.34A.42.42,0,0,1,.22.48,2.63,2.63,0,0,1,1.14,0,2.6,2.6,0,0,1,1.54,0Z"/></g></g></svg>