<svg xmlns="http://www.w3.org/2000/svg" viewBox="0 0 26 24.26"><defs><style>.cls-1{fill:#2c3843;}</style></defs><g id="Layer_2" data-name="Layer 2"><g id="Layer_1-2" data-name="Layer 1"><path class="cls-1" d="M21.09,13.65c-1.47,0-3.18.06-4.89.09-1.33,0-2.65.09-4,.12-1.06,0-2.12.12-3.19.17l-2,.1-3,.19c-.64,0-1.29,0-1.94,0l-1.08.05a.41.41,0,0,1-.4-.19A1.74,1.74,0,0,1,.3,13,2.64,2.64,0,0,1,.89,11.6a.76.76,0,0,1,.58-.3c.4,0,.8-.07,1.2-.08,1.5,0,3-.13,4.5-.23.95-.07,1.91-.09,2.86-.14l2.71-.14h.39c1.95,0,3.9-.08,5.86-.1,1.35,0,2.69,0,4.05,0,.53,0,1.07,0,1.61,0,.21,0,.42,0,.63,0a.45.45,0,0,1,.41.21,2.09,2.09,0,0,1-.37,2.62.65.65,0,0,1-.47.19c-.59,0-1.17.07-1.76.08S21.92,13.65,21.09,13.65Z"/><path class="cls-1" d="M0,3.72a2.74,2.74,0,0,1,.62-1.8.77.77,0,0,1,.59-.27l5.62-.43L11.51.88,16.22.53l3.2-.21L23.3.05l.92,0a.55.55,0,0,1,.61.36,2.07,2.07,0,0,1-.38,2.45.79.79,0,0,1-.62.3l-3.45.28-4.06.32L12.65,4l-3.59.27L6,4.44l-3.85.27c-.47,0-1,.06-1.43.09a.51.51,0,0,1-.51-.24A1.47,1.47,0,0,1,0,3.72Z"/><path class="cls-1" d="M1.36,24.26H1.31c-.58,0-.81-.15-.91-.66A2.65,2.65,0,0,1,1,21.35a.42.42,0,0,1,.34-.17c1.67-.1,3.31-.32,5-.45,2-.16,4-.24,6-.32,1.07,0,2.14-.06,3.21-.07,1.64,0,3.27-.13,4.9-.27l3.18-.26.53-.06a.47.47,0,0,1,.56.3,1.8,1.8,0,0,1,.2,1.39,2.77,2.77,0,0,1-.62,1.12.86.86,0,0,1-.52.23c-.7.11-1.41.16-2.11.22-1.5.12-3,.25-4.5.35-.79.05-1.58.08-2.38.09-1.23,0-2.47,0-3.7.1-1.82.08-3.64.16-5.45.33-1.28.12-2.56.22-3.84.37a3.53,3.53,0,0,1-.46,0Z"/></g></g></svg>