<?xml version="1.0" encoding="UTF-8"?><svg id="Layer_2" xmlns="http://www.w3.org/2000/svg" viewBox="0 0 361.07 305.35"><defs><style>.cls-1{fill:#6a652a;}.cls-2{fill:#6a6729;}.cls-3{fill:#cd8b36;}.cls-4{fill:#c78d37;}.cls-5{fill:#db9e81;}.cls-6{fill:#e09f83;}.cls-7{fill:#234f4d;}.cls-8{fill:#454545;}.cls-9{fill:#1c504d;}</style></defs><g id="Layer_1-2"><g><path class="cls-9" d="M10.56,97.82c3.74,1.38,9.15,.26,12.16-2.28,3.36-2.83,3.64-8.17,4.49-12.2,2.03-9.6,3.78-19.27,5.81-28.87,.36-1.71,.72-3.41,1.12-5.11,.18-.76,.24-2.18,.74-2.81,.86-1.08,3.02-.61,4.19-.62,2.89-.02,5.77-.25,8.62-.69,8.96-1.4,21.49-5.02,26.18-13.68,2.39-4.41,2.03-12.14,.39-16.74-1.85-5.19-5.98-7.42-10.95-9C51.83,2.18,38.73-.88,27.1,3.72c-4.07,1.54-6.85,3.38-7.69,7.76-.7,3.66-.98,7.4-1.31,11.11-.5,5.57-1.12,11.12-1.91,16.66-1.64,11.56-3.89,23-6.16,34.45-1.06,5.35-2.03,10.77-2.73,16.18-.42,3.26-.39,6.6,3.27,7.94Zm1.72-9.24c.61-4.48,1.43-8.94,2.24-13.39,1.94-10.77,4.26-21.45,5.92-32.26,.97-6.29,1.79-12.61,2.38-18.95,.2-2.12,.37-4.24,.59-6.36,.26-2.52,.51-5.07,1.04-7.55,.58-2.72,1.7-3.92,4.44-4.96,9.49-3.76,21.45-.1,30.73,2.89,4.32,1.39,7.85,3.34,9.56,7.8,1.68,4.38,1.79,10.38,.52,14.87-1.17,4.13-5.47,6.97-9.08,8.77-5.05,2.52-10.76,3.84-16.38,4.18-5.27,.31-13.15-1.07-14.78,5.52-1.82,7.38-3.18,14.89-4.63,22.35-.85,4.37-1.71,8.74-2.63,13.1-.63,2.99-1.05,10.37-4.67,11.42-5.07,1.48-5.72-4.02-5.26-7.42Z"/><path class="cls-9" d="M32.94,33.92c1.71,1.22,4.47,.99,6.44,.91,4.93-.21,10-1.31,14.43-3.51,3.45-1.71,7.02-4.54,6.89-8.77-.16-5.08-6.14-7.5-10.35-8.29-.09-.02-.18-.01-.26-.02-.06-.02-.1-.04-.17-.06-3.68-.65-7.41-1.16-11.14-1.42-.94-.06-3.77,.28-4.05,1.51-.51,2.28-.69,4.59-1.02,6.9-.35,2.52-.83,5.01-1.34,7.5-.36,1.74-1.2,4,.57,5.26Zm22.37-12.03c1.29,3.21-.6,6.25-3.3,7.93-2.87,1.77-6.37,2.5-9.72,2.73-1.38,.09-3.44,.4-4.68-.39-1.54-.98-.48-3.5-.2-4.86,.49-2.43,.94-4.87,1.28-7.33,.21-1.54,.4-3.08,.64-4.62,2.4,.27,4.8,.59,7.17,1.01,3.34,.65,7.44,2.12,8.82,5.53Z"/><path class="cls-1" d="M63.7,59.66c2.41-.41,5.43-1.19,6.32-3.78,.63-1.83,.71-5.06-1.15-6.07-3.48-1.9-9.04-1.02-12.78-.69-4.07,.42-10.04,.97-13.07,4.2-1.7,1.81-2.49,4.72-3.37,6.97-2.92,7.54-5.71,15.38-7.29,23.33-.74,3.73-.87,8.51,.88,11.95,1.46,2.87,5.14,3.55,8.03,4.03,5.84,.97,11.99,1.14,17.9,.86,4.14-.2,7.36-1.96,7.92-6.32,.7-5.46-4.51-6.75-8.86-7.1-2.39-.19-4.79-.36-7.19-.53,.55-2.02,1.1-4.05,1.65-6.07,5.34,.49,12.43,1.03,14.08-4.54,2.43-8.19-6.27-8.85-12.41-9.31,.57-2.04,1.15-4.09,1.72-6.13,2.55-.16,5.1-.36,7.62-.79Zm-1.65,15.56c-.27,1.54-.34,2.17-1.81,2.21-.7,.02-1.4,0-2.1-.04-2.15-.09-4.3-.23-6.46-.35-1.22-.07-3.05,.49-3.42,1.84-.84,3.11-1.68,6.21-2.53,9.32-.24,.88,.95,1.27,1.58,1.32,2.36,.18,4.73,.36,7.09,.53,2.19,.16,5.64-.1,7.14,1.84,1.03,1.34,.61,3.36,.04,4.81-.06,.16-.18,.37-.31,.52-.94,.39-2.62,.14-3.58,.14-4.8,0-9.75,0-14.48-.91-2.75-.52-4.9-1.08-5.66-4.02-.82-3.17-.77-6.51-.11-9.69,1.37-6.58,3.58-13.06,5.87-19.37,1.02-2.81,2.02-5.69,3.43-8.33,.46-.87,.2-.68,1.1-1.11,2.36-1.11,5.11-1.41,7.67-1.68,1.84-.17,3.68-.29,5.53-.26,.79,.01,3.19-.19,3.87,.4,.65,.57,.52,2.87,.18,3.8-.11,.3,.13,.07-.34,.21-1.16,.37-2.45,.42-3.65,.55-2.26,.24-4.5,.4-6.77,.52-1.07,.06-2.48,.72-2.79,1.82-.84,2.99-1.68,5.98-2.52,8.97-.25,.89,.96,1.26,1.58,1.32,2.07,.19,4.17,.29,6.23,.57,3.19,.44,5.88,1.28,5.21,5.06Z"/><path class="cls-6" d="M72.04,93.62c-.14,1.42-.44,3.13,.32,4.43,1.13,1.94,3.77,2.59,5.84,2.64,3.9,.1,8.03-1.62,9.61-5.35,2.08-4.92,2.56-10.71,3.25-15.94,1.07-8.09,2.03-16.19,2.9-24.3,.26-2.42,.51-4.85,.8-7.27,1.41,3.98,2.79,7.98,4.16,11.98,3.54,10.39,7.03,20.8,10.88,31.08,.67,1.8,1.25,3.84,2.25,5.5,2.26,3.73,8.21,3.54,11.94,2.68,3.42-.79,6.56-2.56,7.74-6.04,.7-2.05,1.02-4.28,1.42-6.4,4.03-21.42,7-43.16,9.57-64.79,.36-3.05,.72-6.12,.94-9.19,.23-3.22-.06-5.86-3.6-7.14-3.88-1.4-9.38-.25-12.45,2.48-1.29,1.15-1.66,2.58-2.08,4.23-2.34,9.16-3.27,18.79-4.46,28.15-.87,6.79-1.66,13.6-2.47,20.4-.4-1.11-.8-2.22-1.19-3.33-3.55-10.06-6.83-20.21-10.33-30.28-2.11-6.06-3.94-12.54-6.85-18.29-3.06-6.05-13.2-5.4-17.08-.51-.04,.04-.02,.07-.04,.11-.05,.06-.12,.1-.16,.16-1.87,3.5-1.9,8.57-2.39,12.4-.85,6.64-1.57,13.29-2.3,19.94-1.39,12.79-2.41,25.65-4.31,38.37-.71,4.75-1.44,9.51-1.93,14.29Zm5.09-2.44c.54-4.63,1.26-9.24,1.92-13.85,1.67-11.81,2.68-23.71,3.96-35.57,.74-6.83,1.48-13.66,2.33-20.48,.51-4.1,.51-9.59,2.47-13.37,2.59-2.98,6.47,.16,7.69,2.8,.91,1.98,1.67,4.04,2.43,6.09,3,8.01,5.75,16.12,8.46,24.23,2.54,7.6,5.07,15.21,7.84,22.73,.52,1.42,1.66,6.88,3.5,7.37,1.21,.33,3.86-.17,4.49-1.42,.74-1.46,.58-3.72,.77-5.31,.59-4.97,1.18-9.94,1.78-14.91,1.18-9.85,2.38-19.72,4.01-29.51,.45-2.69,.91-5.39,1.55-8.05,.26-1.06,.65-2.94,1.15-3.59,2-2.6,6.63-.66,7.28,2.11,.21,.88,.04,1.94-.01,2.83-.16,2.61-.45,5.21-.75,7.81-2.29,19.95-5.26,39.89-8.58,59.69-.73,4.37-1.07,9.41-2.76,13.55-1.75,4.3-8.04,3.86-10.02-.06-.96-1.89-1.61-4-2.34-5.99-3.89-10.54-7.45-21.19-11.09-31.82-1.54-4.51-3.08-9.03-4.72-13.51-.51-1.41-.9-3.46-1.99-4.57-.49-.5-2.02-.16-2.57,0-3.01,.92-3.07,3.05-3.51,5.89-.97,6.24-1.44,12.57-2.16,18.84-.78,6.84-1.58,13.7-2.57,20.51-.58,3.97-.85,9.62-3.05,13.14-1.4,2.24-4.56,1.76-5.56-.68-.57-1.38-.09-3.51,.08-4.91Z"/><path class="cls-3" d="M185.29,106.38c2.66-.36,10.56-2.92,8.46-6.92-1.59-3.02-8.18-3.2-10.97-3.64-6.21-.98-12.48-1.85-18.75-2.3-2.21-.16-4.56,.04-6.75-.29-1.75-.27-.74,.1-1-.72-.2-.62,.24-1.92,.33-2.54,.67-5.09,1.38-10.19,2.34-15.23,1.54-8.05,2.65-16.17,3.73-24.28,1.71-12.84,3.24-25.69,4.81-38.55,.25-2.06,.97-4.55-.16-6.45-2.82-4.76-10.13-3.59-13.99-.89-.14,.08-.26,.16-.36,.25-.18,.14-.29,.29-.37,.43-2.16,2.46-2.62,6.8-3.18,9.79-1.26,6.71-2.11,13.51-3.14,20.26-2.04,13.35-4.11,26.71-5.86,40.1-.66,5.05-1.29,10.12-1.73,15.19-.29,3.28-1.63,8.2,1.04,10.77,2.61,2.51,7.73,2.56,11.07,2.93,6.27,.68,12.58,1.1,18.87,1.54,5.12,.36,10.48,1.24,15.6,.55Zm-26.16-4.53c-4.27-.38-9.72-.07-13.73-1.89-3.35-1.53-2.02-6.32-1.77-9.28,.37-4.41,.89-8.8,1.44-13.18,1.63-12.85,3.6-25.65,5.55-38.45,1.07-7.04,2.07-14.1,3.21-21.13,.44-2.73,.92-5.47,1.62-8.15,.31-1.19,.64-3.12,1.57-4,2.14-1.65,5.77,.33,5.97,2.82,.04,.45-.12,.98-.17,1.43-.32,2.67-.65,5.34-.98,8.01-1.39,11.32-2.75,22.65-4.26,33.96-.97,7.27-1.93,14.56-3.29,21.76-.79,4.17-1.47,8.35-2.07,12.55-.26,1.87-.52,3.74-.76,5.61-.09,.67-.4,1.69-.18,2.37,.96,3.02,7.71,2.02,10.1,2.17,5.84,.38,11.66,1.18,17.43,2.06,1.22,.19,10.96,.98,10.08,3.45-1.21,3.37-11.07,1.35-13.98,1.13-5.26-.39-10.52-.77-15.78-1.23Z"/><path class="cls-9" d="M214.58,102.66c4.47-.17,10.1-1.79,9.78-7.27-.59-9.98-2.77-20.08-4.4-29.92-2.23-13.48-4.71-26.94-6.42-40.5-.75-5.94-1.33-12.3-3.24-18.01-1.15-3.44-2.99-5.54-6.49-6.55-3.21-.93-5.73-.21-8.41,1.53-.22,.1-.42,.23-.61,.4-.5,.35-.78,.7-.88,1.04-1.01,1.4-1.63,3.17-2.26,4.7-1.79,4.34-3.38,8.77-4.96,13.19-5.37,14.99-10.28,30.15-15.53,45.18-1.55,4.45-3.14,8.89-4.75,13.33-.64,1.77-1.5,3.6-1.86,5.46-.76,3.88,2.21,5.01,5.65,4.97,2.7-.03,5.69-.61,7.68-2.58,1.4-1.39,2.37-3.37,3.35-5.07,1.27-2.22,2.55-4.48,3.53-6.85,.66-1.6,1.28-3.21,2.08-4.75,.08-.15,.73-1.14,.88-1.47,.22,0,.45-.01,.67-.02,4.41-.17,8.78-.7,13.16-1.25,1.37,9.4,2.62,18.85,4.18,28.21,.27,1.65,.43,3.51,1.66,4.75,1.79,1.81,4.82,1.59,7.16,1.5Zm-4.19-9.79c-1.31-9.17-2.71-18.33-4.06-27.5-.14-.93-1.51-1.34-2.29-1.24-3.66,.46-7.31,.96-11,1.24-2.25,.17-5.63-.28-7.67,.76-2.02,1.04-3.08,3.63-3.99,5.59-1.96,4.22-3.69,8.43-6.23,12.37-.33,.51-.76,1.36-1.26,1.75-.12,.09-3.94,1.21-4.41,.47-.2-.32,.04-.95,.1-1.3-.09,.52,.34-.99,.46-1.34,.37-1.08,.77-2.16,1.16-3.24,1.34-3.71,2.68-7.43,3.99-11.16,4.99-14.22,9.66-28.55,14.66-42.76,1.85-5.26,3.72-10.52,5.76-15.72,.61-1.55,1.23-3.1,1.93-4.62,.2-.44,.46-.87,.64-1.31,.03-.08,.07-.14,.1-.2,5.45-3.63,7.46,4.61,8.22,8.48,.95,4.8,1.6,9.65,2.24,14.5,1.48,11.2,3.44,22.35,5.3,33.49,1.56,9.31,3.21,18.63,4.41,28,.27,2.12,.55,4.23,.79,6.35,.16,1.41,.3,2.36-1.57,3.07-1.24,.48-5.38,.85-6.3-.33-.88-1.11-.81-4.03-1-5.36Z"/><path class="cls-9" d="M203.22,44.41c-.49-3.5-.97-7-1.55-10.48-.2-1.21-.23-3.45-1.32-4.29-2.12-1.63-4.21,.55-5.07,2.32-1.13,2.35-2.04,4.83-2.98,7.26-2.37,6.14-5.01,12.36-6.65,18.75-.14,.54-.35,1.18-.2,1.75,.33,1.3,2.01,1.47,3.11,1.54,3.55,.24,7.29,.2,10.82-.32,1.59-.23,3.76-.45,4.52-2.11,.5-1.07,.35-2.41,.28-3.57-.21-3.62-.6-7.24-.96-10.85Zm-12.73,14.24c.03,.11,.01,.1,0,0h0Zm.94-1.12c-.23,0-.46-.02-.69-.03,.25-.87,.53-1.73,.81-2.58,1.07-3.19,2.24-6.35,3.42-9.51,.76-2.04,1.54-4.08,2.33-6.11,.32,2.15,.65,4.29,.95,6.44,.26,2.64,.52,5.28,.74,7.93,.06,.71,.11,1.42,.15,2.13,.02,.44-.01,.93-.01,1.41-1.08,.12-2.16,.21-3.24,.25-1.48,.06-2.97,.08-4.46,.07Z"/><path class="cls-3" d="M230.11,100.36c11.88,3.1,13.03-12.01,14.1-19.77,1.12-8.08,2.06-16.19,2.95-24.3,.33-3.01,.63-6.03,.99-9.04,1.38,3.92,2.75,7.85,4.09,11.79,3.51,10.3,6.98,20.64,10.78,30.84,.74,1.97,1.38,4.16,2.45,5.99,2.28,3.86,8.12,4.16,12.06,3.27,6.76-1.51,7.85-7,8.95-12.81,4.05-21.39,6.99-43.11,9.58-64.72,.58-4.87,3.25-13.92-1.99-16.95-3.91-2.26-9.95-1.36-13.12,1.82-1.23,1.23-1.63,2.74-2.06,4.4-2.35,8.92-3.25,18.34-4.42,27.47-.92,7.15-1.76,14.3-2.61,21.46-.38-1.05-.75-2.1-1.12-3.15-3.55-10.06-6.83-20.21-10.33-30.28-2.11-6.07-4.05-12.34-6.79-18.16-2.99-6.34-12.7-6.87-16.96-1.52-.12,.16-.22,.3-.29,.45,0,0,0,0,0,0-1.8,3.37-1.91,8.15-2.4,11.83-.86,6.45-1.55,12.92-2.26,19.38-1.43,13.03-2.49,26.12-4.35,39.1-.7,4.88-1.48,9.76-2,14.67-.42,3.99,.36,7.1,4.75,8.24Zm19.18-60.72c.17-.58,.73-.43,0,0h0Zm25.75,28.2c.25,.12,.15,.16,0,0h0Zm-44.51,22.79c.53-4.53,1.23-9.04,1.87-13.55,1.68-11.73,2.68-23.55,3.94-35.32,.73-6.82,1.48-13.64,2.32-20.45,.38-3.05,.77-6.1,1.31-9.13,.24-1.37,.43-2.89,1.03-4.17,2.28-2.56,6.28-1.03,7.71,1.66,.96,1.81,1.62,3.87,2.34,5.78,3.09,8.19,5.9,16.5,8.67,24.8,2.57,7.69,5.13,15.39,7.94,22.99,.64,1.73,1.76,7.17,4,7.77,1.35,.36,3.13-.04,3.81-1.39,.75-1.49,.64-3.57,.84-5.18,.56-4.78,1.14-9.55,1.71-14.33,1.2-10.03,2.41-20.08,4.04-30.05,.46-2.78,.93-5.57,1.57-8.31,.18-.78,.35-1.57,.62-2.32,.09-.27,.17-.56,.31-.81,.31-.57,.07-.18,.19-.3,1.7-1.68,5.64-1.74,7,.44,.61,.98,.36,2.33,.29,3.42-.16,2.54-.45,5.06-.73,7.59-2.29,20.06-5.28,40.09-8.61,60-.7,4.17-.96,9.79-2.79,13.47-1.76,3.54-8.29,3.42-9.89,.35-.99-1.91-1.64-4.08-2.39-6.09-3.89-10.54-7.45-21.19-11.09-31.82-1.54-4.51-3.08-9.03-4.72-13.51-.51-1.41-.96-3.68-2.05-4.8-.7-.72-1.77-.9-2.73-.61-2.8,.85-2.96,4.04-3.35,6.5-.94,6.06-1.4,12.2-2.1,18.29-.78,6.85-1.58,13.7-2.56,20.52-.58,4.02-.79,9.86-3.08,13.39-1.39,2.14-4.99,1.92-5.65-.74-.31-1.27,.08-2.85,.23-4.12Z"/><path class="cls-1" d="M352.57,12.51c-8.99-10.5-25.85-13.53-38.32-7.66-3.4,1.86-5.64,3.52-6.93,7.22-1.11,3.15-1.76,6.41-2.32,9.69-1.74,10.19-2.84,20.5-3.88,30.78-1.33,13.04-1.96,26.08-2.49,39.16-.02,.48,.13,.79,.55,1.04,2.93,1.82,5.62,3.59,9.04,4.36,5.76,1.3,11.87,1.12,17.72,.62,10.46-.88,21.14-7.69,27.17-16.18,6.77-9.53,7.77-22.74,7.95-34.04,.19-11.94-.31-25.48-8.47-35.01Zm-1.26,63.66c-3.82,8.6-13.16,16.6-22.6,18.2-5.45,.92-11.73,.97-17.14-.15-3.03-.63-5.39-2.12-7.94-3.71,.46-11.4,.96-22.77,2.04-34.14,.97-10.25,2.1-20.51,3.61-30.7,.45-3.02,.92-6.04,1.58-9.02,.38-1.72,.84-3.44,1.44-5.09,.8-2.21,1.92-3.14,4-4.28,10.7-5.03,24.67-1.21,32,7.69,6.98,8.47,7.74,20.24,7.75,30.76,0,10.07-.6,21.1-4.75,30.45Z"/><path class="cls-1" d="M333.54,10.39c-.05-.02-.11-.03-.17-.05-.09-.05-.18-.1-.3-.14-3.53-1.31-7.61-2.71-11.04-.27-3.13,2.23-3.55,7.12-4.05,10.59-1.32,9.1-2.15,18.27-3,27.42-1.29,13.81-2.29,27.58-2.77,41.44-.03,.94,.78,1.22,1.58,1.32,7.04,.94,13.61-.53,19.4-4.85,3.53-2.63,6.62-5.94,8.62-9.89,2.22-4.39,3.06-9.49,3.87-14.3,1.69-10.11,2.42-20.67,.56-30.81-1.45-7.92-4.79-17-12.69-20.47Zm7.74,47.65c-1.05,8.44-2.36,17.56-8.69,23.77-4.48,4.4-9.44,6.27-15.33,5.87,.39-10.63,1.01-21.2,1.95-31.8,.84-9.52,1.72-19.04,2.83-28.54,.35-2.98,.69-5.97,1.18-8.93,.29-1.72,.45-4.5,1.55-5.92,1.04-1.33,3.31-.16,4.85,.49,0,0,0,0,.01,0,7.1,3.12,10.01,11.16,11.44,18.26,1.79,8.85,1.31,17.89,.2,26.79Z"/><path class="cls-8" d="M24.95,132.15c1.4-2.06,2.8-4.12,4.2-6.18,2.21-3.28,4.8-6.72,6.32-10.4,1.61-3.92-3.91-4.74-6.69-3.8-2.29,.77-4.1,2.66-5.57,4.51-1.03,1.29-1.89,2.71-2.87,4.03-.07,.1-.15,.19-.22,.28-.39-1.01-.74-2.04-1.09-3.06-.55-1.62-.99-3.69-2.19-4.99-1.04-1.13-3.15-2.04-4.65-2.29-1.18-.19-2.25,.43-3.32,.87-4.54,2.21-2.71,7.69-1.47,11.44,.76,2.31,1.6,4.6,2.47,6.86,.21,.55,.44,1.08,.67,1.62,.69,1.67,.13,2.35-1.04,3.61-1.88,2.04-3.59,4.23-5.21,6.48-1.39,1.94-3,3.98-3.96,6.19-1.64,3.74,3.57,4.24,6.19,4.02,2.41-.2,4.26-1.37,5.86-3.11,1.01-1.09,1.91-2.3,2.78-3.5,.3-.42,.6-.83,.9-1.24,.04,.07,.08,.14,.11,.21,.72,1.39,1.35,2.83,2.05,4.24,.97,1.95,2.16,4.11,4.24,5.06,3.04,1.38,10.15,.37,9.76-4.09-.31-3.52-2.61-7.04-4.1-10.16-1.05-2.2-2.1-4.4-3.14-6.6Z"/><path class="cls-8" d="M71.51,154.82c-1.53-9.21-3.17-18.4-4.36-27.66-.52-4.06-.66-9.71-2.9-13.31-2.2-3.54-6.7-3.21-9.75-1.12-.09,.06-.12,.11-.19,.17-.04,.03-.1,.05-.13,.08-.04,.04-.07,.09-.11,.14-.04,.05-.09,.1-.12,.15-.85,.99-1.31,2.48-1.78,3.63-1.3,3.2-2.47,6.45-3.63,9.71-3.98,11.18-7.72,22.45-11.43,33.72-1.18,3.59-2.36,7.17-3.48,10.78-.45,1.47-1.28,3.23-1.34,4.78-.14,3.54,5.11,2.79,7.26,1.96,2.9-1.12,3.73-4,4.79-6.69,1.27-3.25,2.32-6.58,3.65-9.81,.43-1.05,.87-2.13,1.42-3.12,0,.01,.27-.41,.4-.65,1.85,.26,4.25-.3,6.04-.51,1.02-.12,2.04-.25,3.07-.38,.95,6.62,1.69,13.36,2.97,19.92,.64,3.28,3.16,3.45,6.17,3.25,2.85-.19,6.37-1.19,6.44-4.61,.06-2.96-.71-6.13-1.16-9.05-.58-3.79-1.21-7.58-1.83-11.36Zm-15.4-17.21c.21,1.39,.42,2.77,.61,4.16,.19,1.88,.37,3.77,.52,5.65,.04,.53,.08,1.05,.11,1.58,0,.09,.01,.37,0,.65-.31,.04-.62,.08-.94,.1-1.27,.09-2.55,.11-3.83,.09-.2,0-.48-.05-.76-.08,.07-.3,.13-.61,.21-.87,1.16-3.81,2.59-7.56,4.06-11.28Z"/><path class="cls-8" d="M90.13,114.39c-.11,.05-.17,.09-.26,.14-.05,.02-.11,.03-.15,.04-2.16,.98-3.72,2.08-4.22,4.46-.71,3.35-.78,6.87-1.11,10.27-.81,8.14-1.89,16.25-3.2,24.32-1.05,6.45-2.44,12.89-3.05,19.4-.46,4.83,3.68,6.13,7.73,4.49,4.77-1.93,4.66-8.88,5.43-13.19,.52-2.95,.97-5.92,1.62-8.85,.12-.53,.17-1.61,.52-2.07,.57-.74,1.02-.54,2.01-.55,10.32-.12,23.92-6.3,23.87-18.41-.07-14.54-15.61-25.92-29.19-20.04Zm7.5,9.01c.1-.96,.22-1.92,.38-2.87,.12,.09,.25,.17,.37,.26,3.34,2.29,5.34,5.8,6.81,9.49,.82,2.07,1.56,4.36,1.22,6.61-.32,2.11-1.41,4.16-2.75,5.79-1.15,1.39-2.6,2.61-4.35,3.15-.85,.26-1.74,.35-2.63,.37-.49,0-1.87,.14-2.17-.35-.31-.53,.36-2.38,.48-2.99,.23-1.24,.45-2.49,.65-3.74,.4-2.41,.75-4.83,1.06-7.26,.36-2.82,.63-5.64,.92-8.46Z"/><path class="cls-8" d="M129.31,114.33c-2.08,.95-3.84,1.9-4.51,4.19-.89,3.02-.81,6.52-1.11,9.62-.78,8.12-1.83,16.22-3.12,24.27-1.08,6.77-2.53,13.53-3.22,20.36-.16,1.63-.26,3.41,1.17,4.56,1.62,1.3,4.39,1,6.23,.35,4.85-1.73,4.79-8.05,5.56-12.32,.6-3.3,1.09-6.63,1.81-9.9,.47-2.14,.33-2.57,2.55-2.59,10.23-.12,23.48-6.09,23.84-17.96,.45-14.74-15.51-26.52-29.18-20.59Zm16.17,23.16c-.51,2.21-1.74,4.3-3.31,5.92-1.28,1.32-2.87,2.28-4.69,2.59-.97,.17-2.06,.23-3.04,.08-1.12-.17-.71-.79-.52-1.76,.96-4.92,1.7-9.89,2.28-14.87,.33-2.79,.5-5.6,.91-8.38,.03-.18,.07-.35,.1-.53,.12,.08,.26,.15,.37,.25,.13,.09,.22,.2,.34,.29,.33,2.64,.2,1.51,.03,.03,3.25,2.4,5.22,5.96,6.64,9.68,.81,2.12,1.41,4.44,.89,6.7Z"/><path class="cls-8" d="M189.74,119.73c2.11-1,3.47,1.15,4.18,2.83,1.59,3.76,1.16,8.19,6.54,7.56,1.55-.18,3.71-.76,4.77-2,1.16-1.34,.88-3.71,.7-5.37-1.12-10.25-12.94-11.71-21.07-9.16-.21,.04-.42,.1-.62,.19-.36,.13-.59,.26-.75,.39-7.31,3.81-12.09,13.34-7.89,21.18,2,3.74,5.75,6.65,8.66,9.64,3.41,3.52,6.64,7.26,7.68,12.17,.58,2.74,.66,5.68,.26,8.45-.33,2.29-1.7,7.4-4.47,4.33-2.94-3.25-2.67-8.44-3.5-12.48-.35-1.71-.76-2.62-2.46-3.21-1.74-.6-3.9-.56-5.68-.16-2.84,.65-4.4,2.11-4.2,4.99,.3,4.34,.67,9.34,3.18,13.04,2.62,3.87,7.28,5.99,11.85,6.31,8.06,.57,15.4-3.57,18.08-11.34,1.65-4.78,1.25-10.17-.54-14.85-1.5-3.94-4.43-6.95-7.38-9.87-3.52-3.49-8.93-6.92-10.09-12.01-.57-2.5-.15-5.2,.68-7.6,.44-1.27,.83-2.45,2.07-3.04Z"/><path class="cls-8" d="M238.28,120.79c2.22-.32,5.44-1.05,6.93-2.93,1.33-1.68,.35-2.83-1.31-3.65-2.39-1.2-4.17-1.24-6.67-1.03-.1,0-.18,.05-.27,.07-.07,.01-.13,0-.21,.02-8.44,2-18.04-.15-26.17,3.46-2.19,.97-3.58,2.98-.85,4.45,2.69,1.45,6.12,1.33,9.23,1.26-.9,8.43-1.38,16.9-2,25.35-.51,6.93-.98,13.87-1.7,20.78-.39,3.76-1.52,7.05,2.78,8.92,3.04,1.32,8.37-.27,9.68-3.51,1.09-2.69,.68-6.62,.83-9.44,.35-6.95,.6-13.91,1.02-20.86,.41-6.78,.44-13.84,1.83-20.5,.18-.86,.24-1.38,.87-1.82,1.21-.85,4.52-.35,6-.56Z"/><path class="cls-8" d="M273.25,154.32c-1.53-9.2-3.13-18.39-4.34-27.64-.51-3.9-.65-9.61-2.96-13-2.36-3.46-6.99-2.46-9.89-.48-.11,.07-.13,.13-.19,.19-.01,.01-.04,.02-.05,.03-.02,.02-.03,.04-.05,.06-.02,.03-.05,.06-.06,.08-.88,.95-1.34,2.58-1.81,3.71-1.36,3.35-2.57,6.77-3.78,10.18-3.97,11.2-7.72,22.48-11.43,33.76-1.14,3.47-2.28,6.93-3.35,10.42-.41,1.34-1.27,3.1-1.21,4.54,.12,3.31,5.88,1.99,7.78,1.11,2.74-1.27,3.56-4.42,4.56-7.05,1.17-3.08,2.19-6.22,3.44-9.26,.43-1.05,.86-2.14,1.42-3.12,.02-.04,.21-.32,.36-.55,2.71,.34,6.12-.42,9.01-.89,.98,6.78,1.64,13.77,3.06,20.45,.68,3.18,3.77,2.93,6.5,2.65,2.6-.27,5.93-1.21,6.05-4.32,.11-3-.74-6.28-1.19-9.24-.59-3.87-1.24-7.74-1.88-11.6Zm-15.33-16.81c.21,1.42,.43,2.84,.63,4.26,.19,1.88,.37,3.77,.52,5.65,.04,.53,.08,1.05,.11,1.58,.01,.22,.05,.62,.05,.95-.24,.02-.48,.06-.72,.07-1.33,.09-2.68,.11-4.01,.09-.19,0-.64-.1-.96-.11,.14-.36,.2-.85,.31-1.2,1.16-3.82,2.6-7.57,4.07-11.29Zm2.34,12.31c.09-.03,.08-.02,0,0h0Z"/><path class="cls-8" d="M311.74,114.25c-2.42-1.2-4.15-1.2-6.66-.99-.11,0-.2,.05-.3,.07-.06,.01-.11,0-.18,.02-8.42,1.99-17.8-.01-25.98,3.38-1.89,.79-4,2.65-1.41,4.21,2.72,1.64,6.4,1.47,9.6,1.4-.91,8.47-1.38,16.97-2.01,25.46-.51,6.93-.99,13.87-1.7,20.78-.38,3.72-1.54,7.03,2.76,8.85,3.01,1.27,8.37-.33,9.69-3.5,1.1-2.67,.69-6.63,.83-9.43,.35-6.95,.6-13.91,1.01-20.86,.41-6.78,.45-13.83,1.83-20.5,.17-.82,.23-1.43,.85-1.89,1.16-.85,4.55-.35,6-.56,2.21-.32,5.46-1.03,6.94-2.91,1.31-1.66,.38-2.72-1.28-3.55Z"/><path class="cls-8" d="M345.69,112.9c-5.31-1.25-11.57-.03-16.87,.66-2.83,.46-7.41,.7-9.19,3.37-.94,1.41-1.21,3.48-1.55,5.1-2.05,9.71-3,19.69-4.15,29.54-.59,5.01-1.16,10.05-1.36,15.1-.12,2.9-.63,7.55,1.92,9.61,2.38,1.92,6.64,1.9,9.49,2.05,3.95,.2,9.1,.86,12.78-.96,1.15-.57,3.08-1.76,2.84-3.31-.29-1.82-3.15-2.39-4.54-2.73-3.14-.77-6.41-.93-9.64-1.14,.05-7.3,.64-14.48,1.5-21.72,4.36,.4,10.94,.95,12.49-2.87,1.8-4.44-7.52-5.04-11.64-5.3,.92-6.42,1.48-12.89,2.09-19.35,1.95-.19,3.91-.39,5.86-.59,3.58-.36,8.85-.43,11.82-2.86,2.42-1.98,.67-4.02-1.81-4.6Z"/></g><g><g><rect class="cls-5" x="24.11" y="219.07" width="72.22" height="72.22"/><g><path class="cls-8" d="M38.68,302.98h-1.63l.12-.64h1.62l.4-2.25h-1.62l.1-.64h1.63l.4-2.29h.7l-.4,2.29h1.98l.4-2.29h.7l-.4,2.29h1.61l-.11,.64h-1.61l-.39,2.25h1.59l-.1,.64h-1.61l-.39,2.24h-.7l.39-2.24h-1.98l-.39,2.24h-.7l.39-2.24Zm2.79-.64l.4-2.25h-1.99l-.39,2.25h1.97Z"/><path class="cls-8" d="M47.97,299.3c1.4,0,1.88,1.09,1.88,1.09h.02s-.02-.2-.02-.44v-2.81h.78v8.07h-.76v-.61c0-.25,.02-.41,.02-.41h-.02s-.47,1.16-1.99,1.16-2.51-1.24-2.51-3.03,1.08-3.02,2.59-3.02Zm.03,5.35c.96,0,1.87-.69,1.87-2.33,0-1.17-.6-2.32-1.84-2.32-1.02,0-1.86,.86-1.86,2.32s.75,2.33,1.82,2.33Z"/><path class="cls-8" d="M52.51,297.15h.78v2.8c0,.26-.02,.47-.02,.47h.02s.48-1.11,1.96-1.11,2.51,1.24,2.51,3.03-1.09,3.02-2.6,3.02c-1.38,0-1.89-1.12-1.89-1.12h-.02s.02,.2,.02,.47v.52h-.76v-8.07Zm2.59,7.51c1.02,0,1.86-.86,1.86-2.33s-.75-2.32-1.82-2.32c-.96,0-1.87,.69-1.87,2.33,0,1.16,.6,2.32,1.84,2.32Z"/><path class="cls-8" d="M59.37,305.02l.3-.7s.5,.29,1.17,.29c1.7,0,2.55-1.66,2.7-3.24h-.02c-.4,.57-1.22,.94-2.05,.94-1.47,0-2.5-1.08-2.5-2.6,0-1.67,1.11-2.7,2.52-2.7,1.75,0,2.91,1.61,2.91,3.79,0,2.02-1.04,4.55-3.54,4.55-.88,0-1.48-.33-1.48-.33Zm4.16-4.8c0-1.08-.84-2.47-2.04-2.47-1.09,0-1.73,.83-1.73,1.94s.72,1.9,1.82,1.9,1.95-.72,1.95-1.38Z"/><path class="cls-8" d="M68.52,299.3c1.59,0,2.41,1.23,2.41,2.66,0,.14-.02,.4-.02,.4h-4.43c.03,1.48,1.04,2.28,2.24,2.28,1.06,0,1.76-.7,1.76-.7l.36,.6s-.84,.8-2.13,.8c-1.72,0-3.02-1.24-3.02-3.02,0-1.89,1.29-3.03,2.84-3.03Zm1.62,2.42c-.05-1.21-.78-1.77-1.64-1.77-.96,0-1.8,.61-1.99,1.77h3.63Z"/><path class="cls-8" d="M73.53,300.69c-.57-.38-1-.87-1-1.64,0-1.04,.8-2.04,2.43-2.04,1.5,0,2.47,.84,2.47,2.1,0,1.15-.89,2.09-.99,2.18,.67,.38,1.17,.89,1.17,1.73,0,1.26-1.11,2.33-2.67,2.33-1.46,0-2.73-.93-2.73-2.45,0-1.3,1.14-2.09,1.32-2.2Zm.65,.34c-.25,.15-1.16,.79-1.16,1.82,0,1.09,.94,1.75,1.92,1.75s1.86-.65,1.86-1.61c0-1.04-1.42-1.4-2.62-1.97Zm1.61-.07c.15-.14,.84-.86,.84-1.82,0-.86-.69-1.4-1.66-1.4-1.03,0-1.63,.6-1.63,1.32,0,1.04,1.3,1.4,2.45,1.9Z"/><path class="cls-8" d="M79.02,304.5h1.81v-5.92c0-.23,.01-.45,.01-.45h-.02s-.08,.17-.4,.48l-.86,.86-.5-.52,1.82-1.81h.73v7.35h1.78v.71h-4.37v-.71Z"/></g></g><g><rect class="cls-4" x="104.32" y="219.07" width="72.22" height="72.22"/><g><path class="cls-8" d="M119.16,302.98h-1.63l.12-.64h1.62l.4-2.25h-1.62l.1-.64h1.63l.4-2.29h.7l-.4,2.29h1.98l.4-2.29h.7l-.4,2.29h1.61l-.11,.64h-1.61l-.39,2.25h1.59l-.1,.64h-1.61l-.39,2.24h-.7l.39-2.24h-1.98l-.39,2.24h-.7l.39-2.24Zm2.79-.64l.4-2.25h-1.99l-.39,2.25h1.97Z"/><path class="cls-8" d="M128.86,299.3c1.41,0,2.11,.83,2.11,.83l-.4,.58s-.64-.7-1.69-.7c-1.26,0-2.25,.94-2.25,2.32s1,2.32,2.27,2.32c1.17,0,1.85-.81,1.85-.81l.36,.61s-.78,.91-2.25,.91c-1.71,0-3.03-1.23-3.03-3.02s1.33-3.03,3.03-3.03Z"/><path class="cls-8" d="M135.96,298.6c.22-.44,.45-.75,.45-.75v-.02s-.21,.02-.61,.02h-3.77v-.71h5.24v.55l-3.74,7.51h-.83l3.26-6.61Z"/><path class="cls-8" d="M139.61,300.69c-.57-.38-1-.87-1-1.64,0-1.04,.8-2.04,2.43-2.04,1.5,0,2.47,.84,2.47,2.1,0,1.15-.89,2.09-.99,2.18,.67,.38,1.17,.89,1.17,1.73,0,1.26-1.11,2.33-2.67,2.33-1.46,0-2.73-.93-2.73-2.45,0-1.3,1.14-2.09,1.32-2.2Zm.65,.34c-.25,.15-1.16,.79-1.16,1.82,0,1.09,.94,1.75,1.92,1.75s1.86-.65,1.86-1.61c0-1.04-1.42-1.4-2.62-1.97Zm1.61-.07c.15-.14,.84-.86,.84-1.82,0-.86-.69-1.4-1.66-1.4-1.03,0-1.63,.6-1.63,1.32,0,1.04,1.3,1.4,2.45,1.9Z"/><path class="cls-8" d="M147.61,299.3c1.4,0,1.88,1.09,1.88,1.09h.02s-.02-.2-.02-.44v-2.81h.78v8.07h-.76v-.61c0-.25,.02-.41,.02-.41h-.02s-.47,1.16-1.99,1.16-2.51-1.24-2.51-3.03,1.08-3.02,2.59-3.02Zm.03,5.35c.96,0,1.87-.69,1.87-2.33,0-1.17-.6-2.32-1.84-2.32-1.02,0-1.86,.86-1.86,2.32s.75,2.33,1.82,2.33Z"/><path class="cls-8" d="M152.21,303.64s.83,.95,2.07,.95c.96,0,1.85-.71,1.85-1.74,0-1.14-.97-1.72-2.03-1.72h-.55l-.2-.47,2.02-2.36c.22-.25,.42-.45,.42-.45v-.02s-.23,.03-.65,.03h-3.03v-.71h4.71v.53l-2.41,2.78c1.02,.06,2.52,.63,2.52,2.37,0,1.38-1.12,2.52-2.65,2.52s-2.56-1.1-2.56-1.1l.48-.61Z"/><path class="cls-8" d="M162.02,298.6c.22-.44,.45-.75,.45-.75v-.02s-.21,.02-.61,.02h-3.77v-.71h5.24v.55l-3.74,7.51h-.83l3.26-6.61Z"/></g></g><g><rect class="cls-2" x="184.53" y="219.07" width="72.22" height="72.22"/><g><path class="cls-8" d="M199.33,302.98h-1.63l.12-.64h1.62l.4-2.25h-1.62l.1-.64h1.63l.4-2.29h.7l-.4,2.29h1.99l.4-2.29h.7l-.4,2.29h1.61l-.12,.64h-1.61l-.39,2.25h1.59l-.1,.64h-1.61l-.39,2.24h-.7l.39-2.24h-1.99l-.39,2.24h-.7l.39-2.24Zm2.79-.64l.4-2.25h-1.99l-.39,2.25h1.97Z"/><path class="cls-8" d="M206.21,301.56c0-2.02,1.06-4.55,3.54-4.55,.89,0,1.48,.33,1.48,.33l-.3,.7s-.51-.29-1.17-.29c-1.69,0-2.55,1.66-2.68,3.24h.02c.39-.57,1.2-.94,2.04-.94,1.47,0,2.51,1.08,2.51,2.6,0,1.68-1.12,2.7-2.54,2.7-1.76,0-2.91-1.61-2.91-3.79Zm4.63,1.1c0-1.15-.72-1.9-1.82-1.9s-1.95,.72-1.95,1.38c0,1.08,.84,2.47,2.04,2.47,1.09,0,1.73-.83,1.73-1.94Z"/><path class="cls-8" d="M216.29,301.64h.32v-.15c0-1.11-.61-1.49-1.43-1.49-.95,0-1.63,.55-1.63,.55l-.37-.6s.76-.65,2.05-.65c1.39,0,2.16,.77,2.16,2.21v3.69h-.75v-.63c0-.29,.02-.48,.02-.48h-.02s-.48,1.25-1.93,1.25c-.96,0-1.96-.56-1.96-1.71,0-1.95,2.54-2,3.53-2Zm-1.45,3.04c1.1,0,1.77-1.15,1.77-2.15v-.25h-.33c-.91,0-2.72,.03-2.72,1.31,0,.54,.42,1.09,1.28,1.09Z"/><path class="cls-8" d="M218.99,301.56c0-2.02,1.06-4.55,3.55-4.55,.89,0,1.48,.33,1.48,.33l-.3,.7s-.5-.29-1.17-.29c-1.69,0-2.55,1.66-2.69,3.24h.02c.39-.57,1.2-.94,2.04-.94,1.47,0,2.51,1.08,2.51,2.6,0,1.68-1.12,2.7-2.54,2.7-1.75,0-2.91-1.61-2.91-3.79Zm4.64,1.1c0-1.15-.72-1.9-1.82-1.9s-1.95,.72-1.95,1.38c0,1.08,.84,2.47,2.04,2.47,1.09,0,1.73-.83,1.73-1.94Z"/><path class="cls-8" d="M229.44,298.6c.22-.44,.45-.75,.45-.75v-.02s-.21,.02-.61,.02h-3.77v-.71h5.24v.55l-3.74,7.51h-.83l3.26-6.61Z"/><path class="cls-8" d="M231.72,304.7c0-2.83,4.13-3.2,4.13-5.38,0-.88-.67-1.55-1.67-1.55-1.18,0-1.8,1.1-1.8,1.1l-.6-.4s.73-1.46,2.44-1.46c1.54,0,2.45,1,2.45,2.26,0,2.71-4.07,3.09-4.08,5.23h4.21v.71h-5.04c-.04-.18-.05-.36-.05-.52Z"/><path class="cls-8" d="M238.55,305.02l.3-.7s.5,.29,1.17,.29c1.7,0,2.55-1.66,2.7-3.24h-.02c-.4,.57-1.22,.94-2.05,.94-1.47,0-2.5-1.08-2.5-2.6,0-1.67,1.11-2.7,2.52-2.7,1.75,0,2.91,1.61,2.91,3.79,0,2.02-1.04,4.55-3.54,4.55-.88,0-1.48-.33-1.48-.33Zm4.17-4.8c0-1.08-.84-2.47-2.04-2.47-1.09,0-1.73,.83-1.73,1.94s.72,1.9,1.83,1.9,1.95-.72,1.95-1.38Z"/></g></g><g><rect class="cls-7" x="264.74" y="219.07" width="72.22" height="72.22"/><g><path class="cls-8" d="M280.55,302.98h-1.63l.12-.64h1.62l.4-2.25h-1.62l.1-.64h1.63l.4-2.29h.7l-.4,2.29h1.99l.4-2.29h.7l-.4,2.29h1.61l-.11,.64h-1.61l-.39,2.25h1.59l-.1,.64h-1.61l-.39,2.24h-.7l.39-2.24h-1.98l-.39,2.24h-.7l.39-2.24Zm2.79-.64l.4-2.25h-1.99l-.39,2.25h1.97Z"/><path class="cls-8" d="M287.37,304.7c0-2.83,4.13-3.2,4.13-5.38,0-.88-.67-1.55-1.67-1.55-1.18,0-1.8,1.1-1.8,1.1l-.6-.4s.73-1.46,2.44-1.46c1.54,0,2.45,1,2.45,2.26,0,2.71-4.07,3.09-4.08,5.23h4.21v.71h-5.04c-.03-.18-.05-.36-.05-.52Z"/><path class="cls-8" d="M294.16,303.64s.83,.95,2.07,.95c.96,0,1.85-.71,1.85-1.74,0-1.14-.97-1.72-2.03-1.72h-.55l-.2-.47,2.02-2.36c.22-.25,.42-.45,.42-.45v-.02s-.23,.03-.65,.03h-3.03v-.71h4.71v.53l-2.41,2.78c1.02,.06,2.52,.63,2.52,2.37,0,1.38-1.12,2.52-2.65,2.52s-2.56-1.1-2.56-1.1l.48-.61Z"/><path class="cls-8" d="M300,302.46l3.97-5.31h.86v5.13h1.15v.7h-1.15v2.24h-.79v-2.24h-4.04v-.52Zm4.04-.18v-3.37c0-.34,.03-.76,.03-.76h-.02s-.18,.32-.4,.61l-2.68,3.5v.02h3.07Z"/><path class="cls-8" d="M307.65,300.16h-.72v-.65h.72v-.28c0-1.9,1.34-2.15,2-2.15,.22,0,.36,.02,.36,.02v.7s-.12-.02-.28-.02c-.45,0-1.3,.16-1.3,1.45v.28h1.48v.65h-1.48v5.05h-.78v-5.05Z"/><path class="cls-8" d="M310.51,302.46l3.97-5.31h.86v5.13h1.15v.7h-1.15v2.24h-.79v-2.24h-4.04v-.52Zm4.04-.18v-3.37c0-.34,.03-.76,.03-.76h-.02s-.18,.32-.4,.61l-2.68,3.5v.02h3.07Z"/><path class="cls-8" d="M320.12,299.3c1.4,0,1.88,1.09,1.88,1.09h.02s-.02-.2-.02-.44v-2.81h.78v8.07h-.76v-.61c0-.25,.02-.41,.02-.41h-.02s-.47,1.16-1.99,1.16-2.51-1.24-2.51-3.03,1.08-3.02,2.59-3.02Zm.03,5.35c.96,0,1.87-.69,1.87-2.33,0-1.17-.6-2.32-1.84-2.32-1.02,0-1.86,.86-1.86,2.32s.75,2.33,1.82,2.33Z"/></g></g></g></g></svg>