<?xml version="1.0" encoding="UTF-8"?><svg id="Layer_2" xmlns="http://www.w3.org/2000/svg" viewBox="0 0 1018.08 677.02"><defs><style>.cls-1{fill:#b8807a;}.cls-2{fill:#b1c080;}.cls-3{fill:#d8bb7b;}.cls-4{fill:#dee4ba;}.cls-5{fill:#807da3;}.cls-6{fill:#6f8055;}.cls-7{fill:#81a7bf;}</style></defs><g id="Layer_1-2"><g><g><path class="cls-6" d="M86.64,73.82c5.72,0,9.97-1.84,12.75-5.52,2.81-3.68,4.22-8.94,4.22-15.78,0-7.71-1.35-13.5-4.06-17.39-2.67-3.92-7.01-5.89-13.01-5.89-2.67,0-5.03,.57-7.08,1.72-2.05,1.15-3.7,2.74-4.94,4.79-1.25,2.05-2.2,4.41-2.86,7.08-.62,2.64-.94,5.54-.94,8.69,0,4.44,.54,8.3,1.61,11.56,1.11,3.26,2.88,5.87,5.31,7.81,2.43,1.94,5.43,2.92,9,2.92Zm17.12-1.98c-1.87,2.88-4.37,5.17-7.49,6.87-3.12,1.7-6.61,2.55-10.46,2.55-7.53,0-13.43-2.67-17.69-8.02-4.27-5.38-6.4-12.69-6.4-21.92s2.17-15.93,6.51-21.35c4.34-5.45,10.15-8.18,17.43-8.18,3.78,0,7.34,.83,10.67,2.5,3.37,1.63,5.88,3.84,7.55,6.61l-.16-4.95V.81l8.59-.52V80.12h-7.39l-1.14-8.28Z"/><path class="cls-6" d="M160.33,33.56c-2.53-3.05-6.02-4.58-10.46-4.58s-8.07,1.58-10.88,4.74c-2.81,3.12-4.46,7.41-4.94,12.86h30.13c0-5.66-1.28-10-3.85-13.02Zm-8.74,47.75c-8.29,0-14.83-2.64-19.62-7.91-4.75-5.28-7.13-12.5-7.13-21.66s2.31-16.02,6.92-21.51c4.61-5.52,10.69-8.33,18.21-8.44,7.08,0,12.68,2.43,16.81,7.29,4.16,4.83,6.24,11.28,6.24,19.37,0,.42-.02,1.18-.05,2.29v2.39h-39.19c.1,6.49,1.77,11.56,5,15.21,3.26,3.61,7.63,5.42,13.11,5.42,6.04,0,12.09-1.6,18.16-4.79l1.35,7.03c-5.79,3.54-12.4,5.31-19.83,5.31Z"/><path class="cls-6" d="M203.31,81.16c-5.62,0-9.61-1.37-11.97-4.11-2.36-2.74-3.61-7.17-3.75-13.28V29.45h-8.48l.36-5.73,8.07-.73,2.97-13.07,5.72-.21v13.28h15.87v6.46h-15.87V62.2c0,4.34,.66,7.39,1.98,9.16,1.32,1.77,3.57,2.65,6.77,2.65,1.14,0,3.63-.28,7.44-.83l.36,6.87c-4.13,.73-7.29,1.09-9.47,1.09Z"/><path class="cls-6" d="M254.31,33.56c-2.53-3.05-6.02-4.58-10.46-4.58s-8.07,1.58-10.88,4.74c-2.81,3.12-4.46,7.41-4.94,12.86h30.13c0-5.66-1.28-10-3.85-13.02Zm-8.74,47.75c-8.29,0-14.83-2.64-19.62-7.91-4.75-5.28-7.13-12.5-7.13-21.66s2.31-16.02,6.92-21.51c4.61-5.52,10.69-8.33,18.21-8.44,7.08,0,12.68,2.43,16.81,7.29,4.16,4.83,6.24,11.28,6.24,19.37,0,.42-.02,1.18-.05,2.29v2.39h-39.19c.1,6.49,1.77,11.56,5,15.21,3.26,3.61,7.63,5.42,13.11,5.42,6.04,0,12.09-1.6,18.16-4.79l1.35,7.03c-5.79,3.54-12.4,5.31-19.83,5.31Z"/><path class="cls-6" d="M304.69,22.47c1.56,0,2.98,.1,4.27,.31l-.31,8.02c-1.6-.28-2.98-.42-4.16-.42-4.86,0-8.81,1.7-11.87,5.1-3.02,3.37-4.53,7.55-4.53,12.55v32.08h-8.69c-.03-35.06-.05-54.1-.05-57.12h7.23l.83,10.26c1.98-3.23,4.49-5.83,7.55-7.81,3.05-1.98,6.3-2.97,9.73-2.97Z"/><path class="cls-6" d="M390.4,80.12v-29.73c0-2.78-.07-5.1-.21-6.98-.1-1.87-.38-3.79-.83-5.73-.42-1.94-1.02-3.47-1.82-4.58-.76-1.15-1.84-2.07-3.23-2.76-1.39-.73-3.05-1.1-5-1.1-3.82,0-7.08,1.03-9.78,3.07-2.67,2.05-4.58,4.93-5.72,8.64-.31,2.5-.47,5.17-.47,8.02v31.14h-8.69v-30.67c0-2.57-.09-4.79-.26-6.67-.17-1.91-.5-3.75-.99-5.52-.49-1.81-1.15-3.27-1.98-4.38-.8-1.11-1.87-2-3.23-2.66-1.35-.66-2.97-.99-4.84-.99-4.16,0-7.67,1.06-10.51,3.18-2.81,2.12-4.7,4.93-5.67,8.44-.31,2.68-.47,5.57-.47,8.7v30.57h-8.69c-.07-35.72-.11-54.76-.11-57.12h7.29l1.09,8.17c1.73-2.64,4.2-4.86,7.39-6.66,3.19-1.81,6.82-2.71,10.88-2.71,2.12,0,4.06,.23,5.83,.68,1.8,.41,3.3,.95,4.48,1.61,1.21,.66,2.29,1.46,3.23,2.39,.94,.9,1.67,1.81,2.19,2.71,.52,.87,.95,1.79,1.3,2.76,4.16-6.77,10.53-10.15,19.1-10.15,6.35,0,11,1.82,13.95,5.47,2.98,3.61,4.48,8.97,4.48,16.09v36.76h-8.69Z"/><path class="cls-6" d="M420.48,22.99v57.12h-8.74V22.99h8.74Zm0-20.78V12.53h-8.74V2.22h8.74Z"/><path class="cls-6" d="M436.87,80.12V22.99h7.29l1.09,8.17c2.26-2.81,5.06-5.07,8.43-6.77,3.4-1.74,7.06-2.6,10.98-2.6,6.59,0,11.46,1.86,14.62,5.57,3.16,3.68,4.74,9.36,4.74,17.03v35.72h-8.69c0-22.91-.02-35.18-.05-36.82-.14-4.86-1.13-8.42-2.97-10.67-1.8-2.26-4.84-3.38-9.11-3.38-4.48,0-8.2,1.08-11.19,3.23-2.98,2.15-4.93,4.95-5.83,8.38-.35,2.33-.52,5-.52,8.02v31.24h-8.79Z"/><path class="cls-6" d="M531.37,33.56c-2.53-3.05-6.02-4.58-10.46-4.58s-8.07,1.58-10.88,4.74c-2.81,3.12-4.46,7.41-4.94,12.86h30.13c0-5.66-1.28-10-3.85-13.02Zm-8.74,47.75c-8.29,0-14.83-2.64-19.62-7.91-4.75-5.28-7.13-12.5-7.13-21.66s2.31-16.02,6.92-21.51c4.61-5.52,10.68-8.33,18.21-8.44,7.08,0,12.68,2.43,16.81,7.29,4.16,4.83,6.24,11.28,6.24,19.37,0,.42-.02,1.18-.05,2.29v2.39h-39.19c.11,6.49,1.77,11.56,5,15.21,3.26,3.61,7.63,5.42,13.11,5.42,6.04,0,12.09-1.6,18.16-4.79l1.35,7.03c-5.79,3.54-12.4,5.31-19.83,5.31Z"/><path class="cls-6" d="M578.42,73.82c5.72,0,9.97-1.84,12.75-5.52,2.81-3.68,4.21-8.94,4.21-15.78,0-7.71-1.35-13.5-4.06-17.39-2.67-3.92-7.01-5.89-13.01-5.89-2.67,0-5.03,.57-7.08,1.72-2.05,1.15-3.7,2.74-4.95,4.79-1.25,2.05-2.2,4.41-2.86,7.08-.62,2.64-.94,5.54-.94,8.69,0,4.44,.54,8.3,1.61,11.56,1.11,3.26,2.88,5.87,5.31,7.81,2.43,1.94,5.43,2.92,9,2.92Zm17.12-1.98c-1.87,2.88-4.37,5.17-7.5,6.87-3.12,1.7-6.61,2.55-10.46,2.55-7.53,0-13.43-2.67-17.69-8.02-4.27-5.38-6.4-12.69-6.4-21.92s2.17-15.93,6.51-21.35c4.34-5.45,10.15-8.18,17.43-8.18,3.78,0,7.34,.83,10.67,2.5,3.37,1.63,5.88,3.84,7.55,6.61l-.16-4.95V.81l8.59-.52V80.12h-7.39l-1.14-8.28Z"/><path class="cls-6" d="M117.03,222.38c5.9,0,11.07-1.04,15.51-3.13,4.44-2.08,7.91-4.96,10.41-8.64,2.5-3.68,4.34-7.77,5.52-12.29,1.25-4.51,1.87-9.44,1.87-14.79v-8.44c0-5.55-.62-10.66-1.87-15.31-1.25-4.72-3.19-8.92-5.83-12.6-2.57-3.75-6.04-6.66-10.41-8.75-4.3-2.08-9.33-3.13-15.09-3.13-4.79,0-9.16,.9-13.11,2.71-3.89,1.81-7.11,4.2-9.68,7.18-2.5,2.92-4.65,6.36-6.45,10.31-1.73,3.89-2.98,7.85-3.75,11.87-.76,4.03-1.14,8.09-1.14,12.19s.42,8.02,1.25,11.98c.83,3.96,2.15,7.81,3.96,11.56,1.8,3.75,3.99,7.05,6.56,9.9,2.57,2.78,5.76,5.03,9.58,6.77,3.89,1.74,8.12,2.61,12.7,2.61Zm-26.75,67.17l-1.56-15.73h21.23c5.9,0,11.03-.42,15.4-1.25,4.37-.83,8.01-2.22,10.93-4.17,2.91-1.87,5.27-3.99,7.08-6.35,1.8-2.29,3.16-5.31,4.06-9.06,.97-3.68,1.6-7.36,1.87-11.04,.35-3.61,.52-8.05,.52-13.33v-10.1c-4.16,5.97-8.99,10.59-14.47,13.85-5.48,3.19-12.46,4.79-20.92,4.79-6.52,0-12.56-1.11-18.11-3.33-5.48-2.29-10.13-5.31-13.95-9.06-3.75-3.75-6.97-8.09-9.68-13.02-2.64-4.93-4.58-10.03-5.83-15.31-1.18-5.28-1.77-10.59-1.77-15.93,0-8.33,1.01-16.04,3.02-23.12,2.08-7.08,5.13-13.4,9.16-18.95,4.02-5.55,9.3-9.9,15.82-13.02,6.59-3.19,14.12-4.79,22.59-4.79,7.49,0,14.02,1.46,19.57,4.37,5.62,2.85,10.65,7.26,15.09,13.23v-15.21h16.97v106.02c0,4.86-.14,9.1-.42,12.71-.21,3.68-.8,7.74-1.77,12.19-.9,4.44-2.15,8.26-3.75,11.46-1.6,3.19-3.85,6.39-6.77,9.58-2.84,3.26-6.28,5.87-10.3,7.81-3.95,2.01-8.88,3.65-14.78,4.9-5.9,1.25-12.56,1.87-19.98,1.87h-19.26Z"/><path class="cls-6" d="M247.55,121.98c3.12,0,5.97,.21,8.53,.63l-.62,16.04c-3.19-.56-5.97-.83-8.33-.83-9.71,0-17.62,3.4-23.73,10.2-6.04,6.74-9.05,15.1-9.05,25.1v64.15h-17.38c-.07-70.12-.1-108.21-.1-114.25h14.47l1.67,20.52c3.96-6.46,8.99-11.66,15.09-15.62,6.11-3.96,12.59-5.94,19.46-5.94Z"/><path class="cls-6" d="M337.68,144.16c-5.06-6.11-12.04-9.16-20.92-9.16s-16.13,3.16-21.75,9.48c-5.62,6.25-8.92,14.82-9.89,25.72h60.26c0-11.32-2.57-20-7.7-26.04Zm-17.48,95.5c-16.59,0-29.66-5.28-39.24-15.83-9.51-10.56-14.26-25-14.26-43.33s4.61-32.04,13.84-43.01c9.23-11.04,21.37-16.66,36.43-16.87,14.15,0,25.36,4.86,33.62,14.58,8.32,9.65,12.49,22.57,12.49,38.74,0,.83-.03,2.36-.1,4.58v4.79h-78.37c.21,12.98,3.54,23.12,9.99,30.41,6.52,7.22,15.27,10.83,26.23,10.83,12.07,0,24.18-3.19,36.32-9.58l2.71,14.06c-11.59,7.08-24.81,10.62-39.65,10.62Z"/><path class="cls-6" d="M453,144.16c-5.06-6.11-12.04-9.16-20.92-9.16s-16.13,3.16-21.75,9.48c-5.62,6.25-8.92,14.82-9.89,25.72h60.26c0-11.32-2.57-20-7.7-26.04Zm-17.49,95.5c-16.58,0-29.66-5.28-39.24-15.83-9.5-10.56-14.26-25-14.26-43.33s4.61-32.04,13.84-43.01c9.23-11.04,21.37-16.66,36.43-16.87,14.15,0,25.36,4.86,33.62,14.58,8.33,9.65,12.49,22.57,12.49,38.74,0,.83-.03,2.36-.1,4.58v4.79h-78.37c.21,12.98,3.54,23.12,9.99,30.41,6.52,7.22,15.27,10.83,26.23,10.83,12.07,0,24.18-3.19,36.32-9.58l2.71,14.06c-11.59,7.08-24.8,10.62-39.65,10.62Z"/><path class="cls-6" d="M502.54,237.27V123.02h14.57l2.19,16.35c4.51-5.62,10.13-10.14,16.86-13.54,6.8-3.47,14.12-5.21,21.96-5.21,13.18,0,22.93,3.71,29.25,11.14,6.31,7.36,9.47,18.71,9.47,34.05v71.44h-17.38c0-45.82-.03-70.37-.1-73.63-.28-9.72-2.26-16.84-5.93-21.35-3.61-4.51-9.68-6.77-18.22-6.77-8.95,0-16.41,2.15-22.38,6.46-5.97,4.3-9.85,9.89-11.66,16.77-.69,4.65-1.04,10-1.04,16.04v62.49h-17.59Z"/><path class="cls-6" d="M820.62,240.41h-84.68c0-36,14.3-70.53,39.76-95.99,25.46-25.46,59.98-39.76,95.98-39.76h84.68c0,17.83-3.51,35.48-10.33,51.95-6.82,16.47-16.82,31.43-29.43,44.04-12.6,12.61-27.57,22.6-44.04,29.43-16.47,6.82-34.12,10.33-51.95,10.33Z"/><path class="cls-2" d="M664.77,0l78.42,31.97c33.34,13.59,59.91,39.87,73.87,73.05,13.96,33.18,14.17,70.55,.58,103.89l-78.42-31.97c-33.34-13.59-59.91-39.87-73.87-73.05-13.96-33.18-14.17-70.55-.58-103.89Z"/></g><g><path class="cls-6" d="M154.3,658.22v-56.02h18.11c10.67,0,18.8,4.22,18.8,15.04s-4.53,17.57-21.1,17.57c-2.3,0-6.29-.31-9.13-.54v23.94h-6.68Zm30.16-40.82c0-6.6-4.99-9.29-11.89-9.29h-11.59v20.87s7.21,.08,9.75,.08c12.74,0,13.74-6.06,13.74-11.66Z"/><path class="cls-6" d="M196.82,658.22v-31.69c0-3.22-.08-6.29-.08-9.44h5.29l.46,7.14c2.92-5.29,7.21-7.14,12.05-7.14h1.15l.46,5.75h-1.53c-7.67,0-11.51,5.14-11.51,11.28v24.1h-6.29Z"/><path class="cls-6" d="M228.97,609.57h-6.29v-7.37h6.29v7.37Zm0,48.65h-6.29v-41.13h6.29v41.13Z"/><path class="cls-6" d="M238.41,658.22v-30.69c0-3.45-.15-9.21-.15-10.43h5.45l.54,6.14c3.61-4.83,8.67-7.14,13.89-7.14,5.75,0,9.67,2.07,11.59,7.6,3.61-5.53,8.36-7.6,14.2-7.6,9.28,0,12.66,6.45,12.66,16.04v26.09h-6.29v-21.49c0-9.29-.39-15.19-7.37-15.19-5.22,0-9.67,3.76-11.59,9.29v27.39h-6.29v-22.79c0-8.36-1.46-13.89-7.67-13.89s-11.28,4.37-12.66,8.6v28.09h-6.29Z"/><path class="cls-6" d="M316.23,659.15c-6.75,0-12.51-3.53-12.51-11.2,0-10.82,10.44-12.28,21.03-13.81l4.14-.46v-4.68c0-4.99-2.46-7.6-8.14-7.6-4.53,0-9.44,1.15-12.81,2.76l-1.77-4.91c3.15-1.69,8.6-3.15,14.43-3.15,8.13,0,14.5,2.69,14.5,11.89v30.23h-5.14l-.92-4.53c-3.61,4.07-8.52,5.45-12.81,5.45Zm12.66-10.97v-10.13s-3.68,.54-3.76,.54c-11.66,1.53-15.12,3.38-15.12,9.13,0,4.6,2.92,6.52,6.83,6.52s9.36-2.38,12.05-6.06Z"/><path class="cls-6" d="M344.24,658.22v-31.69c0-3.22-.08-6.29-.08-9.44h5.29l.46,7.14c2.92-5.29,7.21-7.14,12.05-7.14h1.15l.46,5.75h-1.53c-7.67,0-11.51,5.14-11.51,11.28v24.1h-6.29Z"/><path class="cls-6" d="M370.86,617.09l12.97,33.38c3.22-9.82,10.82-33.38,10.82-33.38h6.68l-14.96,42.89c-3.45,9.97-7.29,17.04-18.95,17.04h-1.92l-.77-5.68h1.08c8.82,0,10.13-1.3,14.43-13.96l-15.96-40.29h6.6Z"/><path class="cls-6" d="M453.43,632.21h-23.1v26.01h-6.6v-56.02h31l-.54,5.76h-23.86v18.88h23.1v5.37Z"/><path class="cls-6" d="M478.84,659.15c-12.43,0-19.34-9.59-19.34-21.41s7.06-21.64,19.49-21.64,18.88,9.75,18.88,21.56-6.68,21.49-19.03,21.49Zm0-37.83c-8.83,0-12.89,8.13-12.89,16.5s4.07,16.19,13.05,16.19,12.35-7.9,12.35-16.27-3.22-16.42-12.51-16.42Z"/><path class="cls-6" d="M538.47,633.59v24.63h-6.29v-20.64c0-10.67-.46-16.11-8.06-16.11-6.91,0-11.82,4.99-12.82,8.67v28.09h-6.29v-31.15l-.15-9.97h5.45l.54,6.06c3.22-4.37,8.98-7.06,14.66-7.06,9.06,0,12.97,5.99,12.97,17.5Z"/><path class="cls-6" d="M555.74,644.49c0,7.67,.92,9.28,5.91,9.28,.69,0,2.23-.15,5.14-.38l.54,5.07c-4.68,.38-5.83,.54-7.14,.54-9.97,0-10.74-4.91-10.74-17.42v-20.11h-6.29l.54-4.37h5.75l1.61-13.28,4.68-.38v13.66h10.9v4.37h-10.9v23.02Z"/><path class="cls-6" d="M573.62,616.1h7.75v8.67h-7.75v-8.67Zm0,34.3h7.75v8.75h-7.75v-8.75Z"/><path class="cls-6" d="M606.54,630.29c0-17.42,10.05-29.24,27.39-29.24s27.32,11.82,27.32,29.24c0,16.42-9.36,28.78-27.32,28.78s-27.39-12.35-27.39-28.78Zm7.14,0c0,12.89,6.14,23.1,20.26,23.1s20.18-10.21,20.18-23.1c0-13.96-6.68-23.48-20.18-23.48s-20.26,9.36-20.26,23.48Z"/><path class="cls-6" d="M703.08,617.09l-14.73,20.41,14.73,20.72h-6.83l-11.59-16.42-11.59,16.42h-7.21l15.04-20.79-14.66-20.33h7.21l11.13,15.58,11.2-15.58h7.29Z"/><path class="cls-6" d="M710.68,617.09l12.97,33.38c3.22-9.82,10.82-33.38,10.82-33.38h6.68l-14.96,42.89c-3.45,9.97-7.29,17.04-18.95,17.04h-1.92l-.77-5.68h1.07c8.83,0,10.13-1.3,14.43-13.96l-15.96-40.29h6.6Z"/><path class="cls-6" d="M753.12,671.35h7.67c12.89,0,14.35-5.91,14.35-16.27v-3.61c-2.68,3.91-6.22,6.75-12.66,6.75-12.12,0-17.65-10.97-17.65-20.41,0-11.66,5.6-21.72,18.11-21.72,5.45,0,9.28,2.3,12.43,6.52v-5.52h6.06v38.14c0,10.67-1.61,21.79-20.79,21.79h-6.68l-.84-5.68Zm22.25-32.46v-3.07c0-7.83-3.38-14.35-11.89-14.35s-12.2,8.82-12.2,15.96,3.68,15.42,12.12,15.42,11.97-6.6,11.97-13.97Z"/><path class="cls-6" d="M807.22,659.15c-11.74,0-18.88-8.36-18.88-21.56,0-12.28,7.37-21.18,18.11-21.49,10.21,0,16.58,7.75,16.58,19.87,0,.61-.08,2.15-.08,2.84h-28.16c0,9.28,5.45,14.96,12.66,14.96,5.83,0,10.13-2.15,13.04-4.14l1.92,4.6c-3.38,2.92-8.59,4.91-15.19,4.91Zm-12.2-24.71h21.95c0-8.75-4.37-13.2-10.51-13.2s-10.74,5.14-11.43,13.2Z"/><path class="cls-6" d="M863.77,633.59v24.63h-6.29v-20.64c0-10.67-.46-16.11-8.06-16.11-6.91,0-11.82,4.99-12.82,8.67v28.09h-6.29v-31.15l-.15-9.97h5.45l.54,6.06c3.22-4.37,8.98-7.06,14.66-7.06,9.06,0,12.97,5.99,12.97,17.5Z"/></g><g><g><rect class="cls-6" y="365.84" width="123.42" height="123.42"/><g><path class="cls-6" d="M26.77,512.54h-1.76l-.78,4.73h1.74l-.12,1.52h-1.84l-1.03,5.17h-1.81l1-5.17h-2.82l-.96,5.17h-1.54l.88-5.17h-2.06l.12-1.52h2.21l.71-4.71h-2.11l.1-1.49h2.33l.98-4.88h1.84l-.96,4.88h2.82l.83-4.88h1.54l-.78,4.88h1.64l-.17,1.47Zm-6.18,0l-.96,4.73h2.82l.96-4.73h-2.82Z"/><path class="cls-6" d="M41.4,518.33c0,3.19-2.35,5.64-6,5.64s-6.03-2.67-6.03-5.91c0-2.7,.91-4.39,3.31-7.4,1.03-1.3,3.92-4.78,3.92-4.78h2.77l-6.3,7.52c.76-.42,1.74-.74,2.7-.74,3.01,0,5.64,2.35,5.64,5.66Zm-6.08,3.82c2.45,0,3.8-1.74,3.8-3.8,0-2.21-1.37-3.87-3.8-3.87-2.65,0-3.68,1.74-3.68,3.8s1.2,3.87,3.68,3.87Z"/><path class="cls-6" d="M44.25,505.8h5.22c4.31,0,6.79,1.2,6.79,4.36,0,1.72-.73,3.36-2.55,3.95,2.25,.49,3.28,2.57,3.28,4.49,0,3.14-1.84,5.1-6.49,5.1h-6.25v-17.89Zm2.11,7.72h4.24c1.67,0,3.46-.42,3.46-2.94,0-2.7-1.99-3.06-4.9-3.06h-2.79v6Zm0,8.5h3.75c3.11,0,4.73-1.05,4.73-3.46,0-2.25-1.45-3.46-4.12-3.46h-4.36v6.91Z"/><path class="cls-6" d="M59.07,519.08c0-2.3,1.4-4.07,3.73-4.83-2.06-.74-3.31-2.13-3.31-4.31,0-2.89,2.3-4.51,5.47-4.51s5.39,1.62,5.39,4.51c0,2.18-1.15,3.58-3.04,4.31,2.13,.76,3.46,2.52,3.46,4.83,0,3.19-2.62,4.88-5.81,4.88s-5.88-1.69-5.88-4.88Zm2.11-.15c0,2.01,1.64,3.21,3.77,3.21s3.7-1.2,3.7-3.21-1.57-3.16-3.7-3.65c-2.13,.49-3.77,1.67-3.77,3.65Zm.44-9.02c0,1.91,1.15,3.06,3.33,3.55,2.18-.49,3.28-1.64,3.28-3.55,0-1.72-1.52-2.72-3.28-2.72s-3.33,1-3.33,2.72Z"/><path class="cls-6" d="M77.78,505.8v17.89h-2.13v-15.69c-.96,.61-1.74,1.08-2.6,1.35l-.44-1.74c1.05-.47,2.3-1.15,3.26-1.81h1.91Z"/><path class="cls-6" d="M91.75,507.76h-7.28c-.05,1.74-.12,3.9-.17,5.64,.96-.61,1.91-.88,2.92-.88,3.63,0,5.47,2.43,5.47,5.47,0,3.58-2.45,5.98-6.49,5.98-2.08,0-3.75-.66-4.8-1.64l.78-1.69c.76,.59,2.11,1.4,4.09,1.4,2.65,0,4.24-1.67,4.24-4.02,0-2.06-1.25-3.6-3.68-3.6-1.13,0-2.08,.34-2.84,1.18l-1.67-.22,.47-9.56h9.17l-.2,1.96Z"/><path class="cls-6" d="M95.3,514.7c0-5.49,1.99-9.26,6.15-9.26s6.1,3.77,6.1,9.26-1.74,9.26-6.1,9.26-6.15-4.02-6.15-9.26Zm2.3-.07c0,4.34,1.35,7.52,3.85,7.52s3.82-3.19,3.82-7.52-1.32-7.35-3.82-7.35-3.85,3.09-3.85,7.35Z"/></g></g><g><rect class="cls-2" x="149.11" y="365.84" width="123.42" height="123.42"/><g><path class="cls-6" d="M173.87,512.54h-1.76l-.78,4.73h1.74l-.12,1.52h-1.84l-1.03,5.17h-1.81l1-5.17h-2.82l-.96,5.17h-1.54l.88-5.17h-2.06l.12-1.52h2.21l.71-4.71h-2.11l.1-1.49h2.33l.98-4.88h1.84l-.96,4.88h2.82l.83-4.88h1.54l-.78,4.88h1.64l-.17,1.47Zm-6.18,0l-.96,4.73h2.82l.96-4.73h-2.82Z"/><path class="cls-6" d="M186.71,518.03h-7.11l-2.13,5.66h-2.16l6.67-17.89h2.55l6.3,17.89h-2.16l-1.96-5.66Zm-.71-1.64l-2.72-8.53-3.01,8.53h5.73Z"/><path class="cls-6" d="M202.72,515.41h-7.94v6.42h8.8l-.2,1.86h-10.71v-17.89h10.54l-.15,1.84h-8.28v5.93h7.94v1.84Z"/><path class="cls-6" d="M219.6,507.08l-.76,1.62c-1-.78-2.57-1.42-4.41-1.42-4.34,0-6.35,3.53-6.35,7.5s1.76,7.38,6.47,7.38c1.79,0,3.31-.69,4.29-1.47l.69,1.74c-1.18,1.05-2.82,1.54-5.15,1.54-5.61,0-8.58-4.12-8.58-9.19s3.04-9.34,8.55-9.34c2.35,0,4.02,.64,5.24,1.64Z"/><path class="cls-6" d="M223.92,515.04v-1.76c2.75,0,5.34-.32,5.34-3.14,0-1.99-1.18-2.87-3.28-2.87-1.64,0-3.04,.51-3.99,1.27l-.69-1.74c1.08-.83,2.67-1.37,5.15-1.37,2.65,0,5.12,1.57,5.12,4.44,0,2.3-1.2,3.7-3.14,4.29,2.18,.49,3.58,2.11,3.58,4.63,0,3.19-2.55,5.17-6.03,5.17-2.33,0-4.02-.74-4.68-1.37l.69-1.74c.91,.71,2.16,1.3,3.97,1.3,2.35,0,3.95-1.2,3.95-3.38,0-3.21-2.65-3.73-5.98-3.73Z"/><path class="cls-6" d="M242.5,507.64h-8.06l.12-1.84h10.39v1.62l-6.42,16.27h-2.18l6.15-16.05Z"/><path class="cls-6" d="M247.03,519.08c0-2.3,1.4-4.07,3.73-4.83-2.06-.74-3.31-2.13-3.31-4.31,0-2.89,2.3-4.51,5.47-4.51s5.39,1.62,5.39,4.51c0,2.18-1.15,3.58-3.04,4.31,2.13,.76,3.46,2.52,3.46,4.83,0,3.19-2.62,4.88-5.81,4.88s-5.88-1.69-5.88-4.88Zm2.11-.15c0,2.01,1.64,3.21,3.77,3.21s3.7-1.2,3.7-3.21-1.57-3.16-3.7-3.65c-2.13,.49-3.77,1.67-3.77,3.65Zm.44-9.02c0,1.91,1.15,3.06,3.33,3.55,2.18-.49,3.28-1.64,3.28-3.55,0-1.72-1.52-2.72-3.28-2.72s-3.33,1-3.33,2.72Z"/></g></g><rect class="cls-4" x="298.22" y="365.84" width="123.42" height="123.42"/><g><path class="cls-6" d="M318.38,512.54h-1.76l-.78,4.73h1.74l-.12,1.52h-1.84l-1.03,5.17h-1.81l1-5.17h-2.82l-.96,5.17h-1.54l.88-5.17h-2.06l.12-1.52h2.21l.71-4.71h-2.11l.1-1.49h2.33l.98-4.88h1.84l-.96,4.88h2.82l.83-4.88h1.54l-.78,4.88h1.64l-.17,1.47Zm-6.18,0l-.96,4.73h2.82l.96-4.73h-2.82Z"/><path class="cls-6" d="M321.52,505.8h4.44c6.18,0,10.69,2.16,10.69,9.07,0,5.96-3.82,8.82-9.46,8.82h-5.66v-17.89Zm2.11,16.03h3.77c4.39,0,6.98-2.28,6.98-6.91,0-5.64-3.26-7.28-8.16-7.28h-2.6v14.19Z"/><path class="cls-6" d="M339.59,505.8h4.44c6.18,0,10.69,2.16,10.69,9.07,0,5.96-3.82,8.82-9.46,8.82h-5.66v-17.89Zm2.11,16.03h3.77c4.39,0,6.98-2.28,6.98-6.91,0-5.64-3.26-7.28-8.16-7.28h-2.6v14.19Z"/><path class="cls-6" d="M367.7,515.41h-7.94v6.42h8.8l-.2,1.86h-10.71v-17.89h10.54l-.15,1.84h-8.28v5.93h7.94v1.84Z"/><path class="cls-6" d="M382.87,518.33c0,3.19-2.35,5.64-6,5.64s-6.03-2.67-6.03-5.91c0-2.7,.91-4.39,3.31-7.4,1.03-1.3,3.92-4.78,3.92-4.78h2.77l-6.3,7.52c.76-.42,1.74-.74,2.7-.74,3.01,0,5.64,2.35,5.64,5.66Zm-6.08,3.82c2.45,0,3.8-1.74,3.8-3.8,0-2.21-1.37-3.87-3.8-3.87-2.65,0-3.68,1.74-3.68,3.8s1.2,3.87,3.68,3.87Z"/><path class="cls-6" d="M385.71,505.8h5.22c4.31,0,6.79,1.2,6.79,4.36,0,1.72-.73,3.36-2.55,3.95,2.25,.49,3.28,2.57,3.28,4.49,0,3.14-1.84,5.1-6.49,5.1h-6.25v-17.89Zm2.11,7.72h4.24c1.67,0,3.46-.42,3.46-2.94,0-2.7-1.99-3.06-4.9-3.06h-2.79v6Zm0,8.5h3.75c3.11,0,4.73-1.05,4.73-3.46,0-2.25-1.45-3.46-4.12-3.46h-4.36v6.91Z"/><path class="cls-6" d="M412.58,518.33c0,3.19-2.35,5.64-6,5.64s-6.03-2.67-6.03-5.91c0-2.7,.91-4.39,3.31-7.4,1.03-1.3,3.92-4.78,3.92-4.78h2.77l-6.3,7.52c.76-.42,1.74-.74,2.7-.74,3.01,0,5.64,2.35,5.64,5.66Zm-6.08,3.82c2.45,0,3.8-1.74,3.8-3.8,0-2.21-1.37-3.87-3.8-3.87-2.65,0-3.68,1.74-3.68,3.8s1.2,3.87,3.68,3.87Z"/></g><rect class="cls-1" x="447.33" y="365.84" width="123.42" height="123.42"/><g><path class="cls-6" d="M471.46,512.54h-1.76l-.78,4.73h1.74l-.12,1.52h-1.84l-1.03,5.17h-1.81l1-5.17h-2.82l-.96,5.17h-1.54l.88-5.17h-2.06l.12-1.52h2.21l.71-4.71h-2.11l.1-1.49h2.33l.98-4.88h1.84l-.96,4.88h2.82l.83-4.88h1.54l-.78,4.88h1.64l-.17,1.47Zm-6.18,0l-.96,4.73h2.82l.96-4.73h-2.82Z"/><path class="cls-6" d="M487.81,507.08l-.76,1.62c-1-.78-2.57-1.42-4.41-1.42-4.34,0-6.35,3.53-6.35,7.5s1.76,7.38,6.47,7.38c1.79,0,3.31-.69,4.29-1.47l.69,1.74c-1.18,1.05-2.82,1.54-5.15,1.54-5.61,0-8.58-4.12-8.58-9.19s3.04-9.34,8.55-9.34c2.35,0,4.02,.64,5.24,1.64Z"/><path class="cls-6" d="M492.13,515.04v-1.76c2.75,0,5.34-.32,5.34-3.14,0-1.99-1.18-2.87-3.28-2.87-1.64,0-3.04,.51-3.99,1.27l-.69-1.74c1.08-.83,2.67-1.37,5.15-1.37,2.65,0,5.12,1.57,5.12,4.44,0,2.3-1.2,3.7-3.14,4.29,2.18,.49,3.58,2.11,3.58,4.63,0,3.19-2.55,5.17-6.03,5.17-2.33,0-4.02-.74-4.68-1.37l.69-1.74c.91,.71,2.16,1.3,3.97,1.3,2.35,0,3.95-1.2,3.95-3.38,0-3.21-2.65-3.73-5.98-3.73Z"/><path class="cls-6" d="M510.7,507.64h-8.06l.12-1.84h10.39v1.62l-6.42,16.27h-2.18l6.15-16.05Z"/><path class="cls-6" d="M515.78,505.8h4.44c6.18,0,10.69,2.16,10.69,9.07,0,5.96-3.82,8.82-9.46,8.82h-5.66v-17.89Zm2.11,16.03h3.77c4.39,0,6.98-2.28,6.98-6.91,0-5.64-3.26-7.28-8.16-7.28h-2.6v14.19Z"/><path class="cls-6" d="M541.34,507.64h-8.06l.12-1.84h10.39v1.62l-6.42,16.27h-2.18l6.15-16.05Z"/><path class="cls-6" d="M545.88,519.08c0-2.3,1.4-4.07,3.73-4.83-2.06-.74-3.31-2.13-3.31-4.31,0-2.89,2.3-4.51,5.47-4.51s5.39,1.62,5.39,4.51c0,2.18-1.15,3.58-3.04,4.31,2.13,.76,3.46,2.52,3.46,4.83,0,3.19-2.62,4.88-5.81,4.88s-5.88-1.69-5.88-4.88Zm2.11-.15c0,2.01,1.64,3.21,3.77,3.21s3.7-1.2,3.7-3.21-1.57-3.16-3.7-3.65c-2.13,.49-3.77,1.67-3.77,3.65Zm.44-9.02c0,1.91,1.15,3.06,3.33,3.55,2.18-.49,3.28-1.64,3.28-3.55,0-1.72-1.52-2.72-3.28-2.72s-3.33,1-3.33,2.72Z"/></g><rect class="cls-3" x="596.44" y="365.84" width="123.42" height="123.42"/><g><path class="cls-6" d="M622.01,512.54h-1.76l-.78,4.73h1.74l-.12,1.52h-1.84l-1.03,5.17h-1.81l1-5.17h-2.82l-.96,5.17h-1.54l.88-5.17h-2.06l.12-1.52h2.21l.71-4.71h-2.11l.1-1.49h2.33l.98-4.88h1.84l-.96,4.88h2.82l.83-4.88h1.54l-.78,4.88h1.64l-.17,1.47Zm-6.18,0l-.96,4.73h2.82l.96-4.73h-2.82Z"/><path class="cls-6" d="M625.14,505.8h4.44c6.18,0,10.69,2.16,10.69,9.07,0,5.96-3.82,8.82-9.46,8.82h-5.66v-17.89Zm2.11,16.03h3.77c4.39,0,6.98-2.28,6.98-6.91,0-5.64-3.26-7.28-8.16-7.28h-2.6v14.19Z"/><path class="cls-6" d="M653.26,515.41h-7.94v6.42h8.8l-.2,1.86h-10.71v-17.89h10.54l-.15,1.84h-8.28v5.93h7.94v1.84Z"/><path class="cls-6" d="M656.93,505.8h5.22c4.31,0,6.79,1.2,6.79,4.36,0,1.72-.73,3.36-2.55,3.95,2.25,.49,3.28,2.57,3.28,4.49,0,3.14-1.84,5.1-6.49,5.1h-6.25v-17.89Zm2.11,7.72h4.24c1.67,0,3.46-.42,3.46-2.94,0-2.7-1.99-3.06-4.9-3.06h-2.79v6Zm0,8.5h3.75c3.11,0,4.73-1.05,4.73-3.46,0-2.25-1.45-3.46-4.12-3.46h-4.36v6.91Z"/><path class="cls-6" d="M685.51,507.08l-.76,1.62c-1-.78-2.57-1.42-4.41-1.42-4.34,0-6.35,3.53-6.35,7.5s1.76,7.38,6.47,7.38c1.79,0,3.31-.69,4.29-1.47l.69,1.74c-1.18,1.05-2.82,1.54-5.15,1.54-5.61,0-8.58-4.12-8.58-9.19s3.04-9.34,8.55-9.34c2.35,0,4.02,.64,5.24,1.64Z"/><path class="cls-6" d="M695.22,507.64h-8.06l.12-1.84h10.39v1.62l-6.42,16.27h-2.18l6.15-16.05Z"/><path class="cls-6" d="M704.31,505.8v17.89h-2.13v-15.69c-.96,.61-1.74,1.08-2.6,1.35l-.44-1.74c1.05-.47,2.3-1.15,3.26-1.81h1.91Z"/></g><rect class="cls-5" x="745.55" y="365.84" width="123.42" height="123.42"/><g><path class="cls-6" d="M770.88,512.54h-1.76l-.78,4.73h1.74l-.12,1.52h-1.84l-1.03,5.17h-1.81l1-5.17h-2.82l-.96,5.17h-1.54l.88-5.17h-2.06l.12-1.52h2.21l.71-4.71h-2.11l.1-1.49h2.33l.98-4.88h1.84l-.96,4.88h2.82l.83-4.88h1.54l-.78,4.88h1.64l-.17,1.47Zm-6.18,0l-.96,4.73h2.82l.96-4.73h-2.82Z"/><path class="cls-6" d="M773.48,519.08c0-2.3,1.4-4.07,3.73-4.83-2.06-.74-3.31-2.13-3.31-4.31,0-2.89,2.3-4.51,5.47-4.51s5.39,1.62,5.39,4.51c0,2.18-1.15,3.58-3.04,4.31,2.13,.76,3.46,2.52,3.46,4.83,0,3.19-2.62,4.88-5.81,4.88s-5.88-1.69-5.88-4.88Zm2.11-.15c0,2.01,1.64,3.21,3.77,3.21s3.7-1.2,3.7-3.21-1.57-3.16-3.7-3.65c-2.13,.49-3.77,1.67-3.77,3.65Zm.44-9.02c0,1.91,1.15,3.06,3.33,3.55,2.18-.49,3.28-1.64,3.28-3.55,0-1.72-1.52-2.72-3.28-2.72s-3.33,1-3.33,2.72Z"/><path class="cls-6" d="M790.27,515.04v-1.76c2.75,0,5.34-.32,5.34-3.14,0-1.99-1.18-2.87-3.28-2.87-1.64,0-3.04,.51-3.99,1.27l-.69-1.74c1.08-.83,2.67-1.37,5.15-1.37,2.65,0,5.12,1.57,5.12,4.44,0,2.3-1.2,3.7-3.14,4.29,2.18,.49,3.58,2.11,3.58,4.63,0,3.19-2.55,5.17-6.03,5.17-2.33,0-4.02-.74-4.68-1.37l.69-1.74c.91,.71,2.16,1.3,3.97,1.3,2.35,0,3.95-1.2,3.95-3.38,0-3.21-2.65-3.73-5.98-3.73Z"/><path class="cls-6" d="M808.85,507.64h-8.06l.12-1.84h10.39v1.62l-6.42,16.27h-2.18l6.15-16.05Z"/><path class="cls-6" d="M827.13,507.08l-.76,1.62c-1-.78-2.57-1.42-4.41-1.42-4.34,0-6.35,3.53-6.35,7.5s1.76,7.38,6.47,7.38c1.79,0,3.31-.69,4.29-1.47l.69,1.74c-1.18,1.05-2.82,1.54-5.15,1.54-5.61,0-8.58-4.12-8.58-9.19s3.04-9.34,8.55-9.34c2.35,0,4.02,.64,5.24,1.64Z"/><path class="cls-6" d="M839.04,518.03h-7.11l-2.13,5.66h-2.16l6.67-17.89h2.55l6.3,17.89h-2.16l-1.96-5.66Zm-.71-1.64l-2.72-8.53-3.01,8.53h5.73Z"/><path class="cls-6" d="M852.5,507.64h-8.06l.12-1.84h10.39v1.62l-6.42,16.27h-2.18l6.15-16.05Z"/></g><rect class="cls-7" x="894.66" y="365.84" width="123.42" height="123.42"/><g><path class="cls-6" d="M919.99,512.54h-1.76l-.78,4.73h1.74l-.12,1.52h-1.84l-1.03,5.17h-1.81l1-5.17h-2.82l-.96,5.17h-1.54l.88-5.17h-2.06l.12-1.52h2.21l.71-4.71h-2.11l.1-1.49h2.33l.98-4.88h1.84l-.96,4.88h2.82l.83-4.88h1.54l-.78,4.88h1.64l-.17,1.47Zm-6.18,0l-.96,4.73h2.82l.96-4.73h-2.82Z"/><path class="cls-6" d="M922.59,519.08c0-2.3,1.4-4.07,3.73-4.83-2.06-.74-3.31-2.13-3.31-4.31,0-2.89,2.3-4.51,5.47-4.51s5.39,1.62,5.39,4.51c0,2.18-1.15,3.58-3.04,4.31,2.13,.76,3.46,2.52,3.46,4.83,0,3.19-2.62,4.88-5.81,4.88s-5.88-1.69-5.88-4.88Zm2.11-.15c0,2.01,1.64,3.21,3.77,3.21s3.7-1.2,3.7-3.21-1.57-3.16-3.7-3.65c-2.13,.49-3.77,1.67-3.77,3.65Zm.44-9.02c0,1.91,1.15,3.06,3.33,3.55,2.18-.49,3.28-1.64,3.28-3.55,0-1.72-1.52-2.72-3.28-2.72s-3.33,1-3.33,2.72Z"/><path class="cls-6" d="M939.38,515.04v-1.76c2.75,0,5.34-.32,5.34-3.14,0-1.99-1.18-2.87-3.28-2.87-1.64,0-3.04,.51-3.99,1.27l-.69-1.74c1.08-.83,2.67-1.37,5.15-1.37,2.65,0,5.12,1.57,5.12,4.44,0,2.3-1.2,3.7-3.14,4.29,2.18,.49,3.58,2.11,3.58,4.63,0,3.19-2.55,5.17-6.03,5.17-2.33,0-4.02-.74-4.68-1.37l.69-1.74c.91,.71,2.16,1.3,3.97,1.3,2.35,0,3.95-1.2,3.95-3.38,0-3.21-2.65-3.73-5.98-3.73Z"/><path class="cls-6" d="M957.96,507.64h-8.06l.12-1.84h10.39v1.62l-6.42,16.27h-2.18l6.15-16.05Z"/><path class="cls-6" d="M976.24,507.08l-.76,1.62c-1-.78-2.57-1.42-4.41-1.42-4.34,0-6.35,3.53-6.35,7.5s1.76,7.38,6.47,7.38c1.79,0,3.31-.69,4.29-1.47l.69,1.74c-1.18,1.05-2.82,1.54-5.15,1.54-5.61,0-8.58-4.12-8.58-9.19s3.04-9.34,8.55-9.34c2.35,0,4.02,.64,5.24,1.64Z"/><path class="cls-6" d="M988.15,518.03h-7.11l-2.13,5.66h-2.16l6.67-17.89h2.55l6.3,17.89h-2.16l-1.96-5.66Zm-.71-1.64l-2.72-8.53-3.01,8.53h5.73Z"/><path class="cls-6" d="M1001.61,507.64h-8.06l.12-1.84h10.39v1.62l-6.42,16.27h-2.18l6.15-16.05Z"/></g></g></g></g></svg>